SplineFontDB: 3.0
FontName: Gruppo-Regular
FullName: Gruppo
FamilyName: Gruppo
Weight: Book
Copyright: Copyright (c) 2010-2012, Vernon Adams (vern@newtypography.co.uk), with Reserved Font Name Gruppo
Version: 2.0
ItalicAngle: 0
UnderlinePosition: -232
UnderlineWidth: 41
Ascent: 1638
Descent: 410
sfntRevision: 0x00010000
LayerCount: 2
Layer: 0 0 "Back"  1
Layer: 1 0 "Fore"  0
XUID: [1021 14 500265001 3878152]
FSType: 0
OS2Version: 3
OS2_WeightWidthSlopeOnly: 0
OS2_UseTypoMetrics: 1
CreationTime: 1296584385
ModificationTime: 1334096020
PfmFamily: 33
TTFWeight: 400
TTFWidth: 5
LineGap: 0
VLineGap: 0
Panose: 2 0 6 4 6 0 0 2 0 4
OS2TypoAscent: 1639
OS2TypoAOffset: 0
OS2TypoDescent: -340
OS2TypoDOffset: 0
OS2TypoLinegap: 0
OS2WinAscent: 1639
OS2WinAOffset: 0
OS2WinDescent: 340
OS2WinDOffset: 0
HheadAscent: 1639
HheadAOffset: 0
HheadDescent: -340
HheadDOffset: 0
OS2SubXSize: 1434
OS2SubYSize: 1331
OS2SubXOff: 0
OS2SubYOff: 287
OS2SupXSize: 1434
OS2SupYSize: 1331
OS2SupXOff: 0
OS2SupYOff: 977
OS2StrikeYSize: 102
OS2StrikeYPos: 512
OS2Vendor: 'newt'
OS2CodePages: 00000093.00000000
OS2UnicodeRanges: 8000006f.4000004b.00000000.00000000
Lookup: 258 0 0 "'kern' Horizontal Kerning lookup 0"  {"'kern' Horizontal Kerning lookup 0 per glyph data 0"  "'kern' Horizontal Kerning lookup 0 kerning class 1"  } ['kern' ('DFLT' <'dflt' > 'latn' <'dflt' > ) ]
MarkAttachClasses: 1
DEI: 91125
KernClass2: 95+ 104 "'kern' Horizontal Kerning lookup 0 kerning class 1" 
 2 AE
 1 B
 1 D
 3 Eth
 1 F
 1 G
 1 H
 1 K
 1 L
 6 Lslash
 1 M
 2 OE
 6 Oslash
 1 P
 1 Q
 5 Thorn
 1 V
 1 W
 1 X
 2 ae
 8 asterisk
 2 at
 1 b
 9 backslash
 3 bar
 9 braceleft
 11 bracketleft
 1 d
 8 dotlessi
 6 emdash
 6 endash
 10 exclamdown
 1 f
 4 four
 1 g
 10 germandbls
 13 guillemotleft
 14 guillemotright
 13 guilsinglleft
 14 guilsinglright
 1 h
 4 hbar
 6 hyphen
 1 l
 6 lslash
 1 m
 2 oe
 6 oslash
 9 parenleft
 6 period
 1 q
 8 quotedbl
 12 quotedblbase
 12 quotedblleft
 13 quotedblright
 9 quoteleft
 10 quoteright

StartChar: exclam
Encoding: 23 33 2
Width: 330
Flags: MW
LayerCount: 2
Fore
SplineSet
108 46 m 0
 108 81 131 105 166 105 c 0
 199 105 226 81 226 46 c 0
 226 13 199 -10 166 -10 c 0
 131 -10 108 13 108 46 c 0
108 1065 m 0
 108 1098 136 1110 164 1110 c 0
 193 1110 221 1095 221 1063 c 1
 189 250 l 2
 188 231 177 221 164 221 c 0
 152 221 141 231 140 250 c 0
 108 1063 108 1064 108 1065 c 0
EndSplineSet
EndChar

StartChar: quotedbl
Encoding: 24 34 3
Width: 403
Flags: MW
LayerCount: 2
Fore
SplineSet
253 810 m 4
 249.040370854 857.428256343 238.481645128 1086.03071195 230 1099 c 1
 230 1123 252 1135 279 1135 c 0
 306 1135 327 1123 327 1099 c 1
 320.167330095 1093.77608042 308.226302761 852.157643484 305 810 c 4
 303 795 291 789 279 789 c 4
 267 789 254.899478301 795.120753306 253 810 c 4
97 810 m 4
 93.0403708538 857.428256343 82.4816451277 1086.03071195 74 1099 c 1
 74 1123 96 1135 123 1135 c 0
 150 1135 171 1123 171 1099 c 1
 164.167330095 1093.77608042 152.226302761 852.157643484 149 810 c 4
 147 795 135 789 123 789 c 4
 111 789 98.8994783014 795.120753306 97 810 c 4
EndSplineSet
EndChar

StartChar: numbersign
Encoding: 25 35 4
Width: 758
Flags: MW
LayerCount: 2
Fore
SplineSet
432 353 m 1
 259 353 l 1
 211 58 l 2
 206 26 197 0 170 0 c 0
 147 0 142 12 142 29 c 0
 142 38 143 47 145 57 c 2
 193 353 l 1
 120 353 l 2
 88 353 62 358 62 385 c 0
 62 418 89 419 119 419 c 2
 204 419 l 1
 242 650 l 1
 159 650 l 2
 127 650 101 655 101 683 c 0
 101 715 127 717 158 717 c 2
 253 717 l 1
 308 1054 l 2
 313 1087 320 1114 353 1114 c 0
 372 1114 376 1102 376 1083 c 0
 376 1075 375 1065 374 1056 c 2
 319 717 l 1
 492 717 l 1
 547 1054 l 2
 552 1087 560 1114 592 1114 c 0
 611 1114 616 1100 616 1081 c 0
 616 1073 615 1065 614 1056 c 2
 558 717 l 1
 635 717 l 2
 667 717 695 714 695 681 c 0
 695 654 665 650 636 650 c 2
 547 650 l 1
 509 419 l 1
 596 419 l 2
 628 419 656 416 656 384 c 0
 656 356 626 353 597 353 c 2
 498 353 l 1
 450 58 l 2
 445 26 436 0 409 0 c 0
 386 0 381 12 381 29 c 0
 381 38 382 47 384 57 c 2
 432 353 l 1
443 419 m 1
 481 650 l 1
 308 650 l 1
 270 419 l 1
 443 419 l 1
EndSplineSet
EndChar

StartChar: dollar
Encoding: 26 36 5
Width: 1523
Flags: MW
LayerCount: 2
Fore
SplineSet
720 1069 m 0
 709 1069 698 1068 688 1068 c 1
 688 624 l 1
 738 621 789 619 841 615 c 1
 841 1065 l 1
 800 1067 760 1069 720 1069 c 0
841 46 m 1
 841 539 l 1
 790 542 739 545 688 547 c 1
 688 52 l 1
 739 48 790 46 841 46 c 1
195 821 m 0
 195 677 385 645 616 629 c 1
 616 1066 l 1
 384 1052 195 987 195 821 c 0
1342 311 m 0
 1342 477 1147 517 913 534 c 1
 913 47 l 1
 1149 58 1342 127 1342 311 c 0
1427 311 m 0
 1427 78 1186 -4 913 -18 c 1
 913 -91 l 2
 913 -130 913 -161 878 -161 c 0
 841 -161 841 -131 841 -99 c 2
 841 -20 l 1
 829 -20 l 2
 782 -20 735 -18 688 -15 c 1
 688 -91 l 2
 688 -130 688 -161 653 -161 c 0
 616 -161 616 -131 616 -99 c 2
 616 -9 l 1
 407 11 220 56 149 90 c 0
 130 99 122 114 122 129 c 0
 122 145 131 158 148 158 c 0
 152 158 157 157 162 155 c 0
 237 124 418 80 616 59 c 1
 616 551 l 1
 349 569 110 610 110 815 c 0
 110 1043 350 1118 616 1132 c 1
 616 1230 l 2
 616 1265 616 1296 653 1296 c 0
 688 1296 688 1262 688 1227 c 2
 688 1135 l 1
 716 1135 l 2
 758 1135 800 1133 841 1130 c 1
 841 1230 l 2
 841 1265 841 1296 878 1296 c 0
 913 1296 913 1262 913 1227 c 2
 913 1125 l 1
 1085 1108 1236 1071 1311 1036 c 0
 1322 1031 1327 1020 1327 1009 c 0
 1327 990 1314 971 1291 971 c 0
 1285 971 1279 972 1274 975 c 0
 1178 1014 1049 1044 913 1058 c 1
 913 610 l 1
 1183 587 1427 534 1427 311 c 0
EndSplineSet
EndChar

StartChar: percent
Encoding: 27 37 6
Width: 1268
Flags: MW
LayerCount: 2
Fore
SplineSet
128 801 m 0
 128 705 212 625 312 625 c 0
 412 625 494 705 494 801 c 0
 494 898 412 978 312 978 c 0
 212 978 128 898 128 801 c 0
60 803 m 0
 60 934 173 1045 312 1045 c 0
 451 1045 564 934 564 803 c 0
 564 671 451 562 312 562 c 0
 173 562 60 671 60 803 c 0
777 345 m 0
 777 249 857 169 961 169 c 0
 1061 169 1143 249 1143 345 c 0
 1143 442 1061 522 961 522 c 0
 857 522 777 442 777 345 c 0
707 347 m 0
 707 478 821 589 961 589 c 0
 1100 589 1213 478 1213 347 c 0
 1213 215 1100 106 961 106 c 0
 821 106 707 215 707 347 c 0
973 1042 m 2
 360 46 l 2
 343 19 331 -2 311 -2 c 0
 283 -2 275 20 275 32 c 0
 275 52 284 62 295 80 c 2
 906 1075 l 2
 921 1100 932 1124 956 1124 c 0
 985 1124 992 1107 992 1094 c 0
 992 1075 983 1058 973 1042 c 2
EndSplineSet
EndChar

StartChar: ampersand
Encoding: 28 38 7
Width: 1164
Flags: MW
LayerCount: 2
Fore
SplineSet
471 1085 m 0
 343 1085 251 1012 251 905 c 0
 251 821 305 750 358 695 c 1
 675 695 l 1
 675 855 l 2
 675 876 695 886 715 886 c 0
 735 886 755 876 755 855 c 2
 755 695 l 1
 916 695 l 2
 952 695 957 685 957 666 c 0
 957 651 952 636 916 636 c 2
 755 636 l 1
 755 279 l 2
 755 84 840 49 944 49 c 0
 1032 49 1102 124 1123 124 c 0
 1136 124 1145 113 1145 100 c 0
 1145 66 1038 -10 930 -10 c 0
 850 -10 783 11 736 67 c 1
 644 11 538 -18 434 -18 c 0
 237 -18 58 90 58 327 c 0
 58 555 215 640 322 671 c 1
 264 699 181 767 181 909 c 0
 181 1057 317 1144 457 1144 c 0
 657 1144 708 1073 708 1058 c 0
 708 1043 698 1027 682 1027 c 0
 660 1027 603 1085 471 1085 c 0
134 331 m 0
 134 127 279 48 436 48 c 0
 531 48 627 76 702 123 c 1
 685 163 675 215 675 279 c 2
 675 636 l 1
 364 636 l 1
 223 591 134 507 134 331 c 0
EndSplineSet
EndChar

StartChar: quoteright
Encoding: 385 8217 8
Width: 316
Flags: MW
LayerCount: 2
Fore
SplineSet
77 877 m 1
 77 928 l 1
 87 928 l 2
 122 928 131 939 131 954 c 0
 131 978 103 1016 96 1032 c 0
 91 1044 91 1056 90 1064 c 1
 90 1107 124 1134 163 1134 c 0
 203 1134 246 1103 246 1023 c 0
 246 937 196 874 112 874 c 0
 101 874 89 875 77 877 c 1
EndSplineSet
EndChar

StartChar: parenleft
Encoding: 30 40 9
Width: 444
Flags: MW
LayerCount: 2
Fore
SplineSet
70 551 m 0
 70 917 189 1281 481 1281 c 0
 503 1281 514 1265 514 1249 c 0
 514 1233 503 1217 481 1217 c 0
 238 1217 148 885 148 552 c 0
 148 219 238 -113 481 -113 c 0
 503 -113 514 -129 514 -145 c 0
 514 -161 503 -177 481 -177 c 0
 189 -177 70 185 70 551 c 0
EndSplineSet
EndChar

StartChar: parenright
Encoding: 31 41 10
Width: 444
Flags: MW
LayerCount: 2
Fore
SplineSet
374 551 m 0
 374 185 255 -177 -37 -177 c 0
 -59 -177 -70 -161 -70 -145 c 0
 -70 -129 -59 -113 -37 -113 c 0
 206 -113 296 219 296 552 c 0
 296 885 206 1217 -37 1217 c 0
 -59 1217 -70 1233 -70 1249 c 0
 -70 1265 -59 1281 -37 1281 c 0
 255 1281 374 917 374 551 c 0
EndSplineSet
EndChar

StartChar: asterisk
Encoding: 32 42 11
Width: 868
Flags: MW
LayerCount: 2
Fore
SplineSet
431 733 m 1
 542 979 l 2
 552 1001 562 1018 578 1018 c 0
 602 1018 619 999 619 987 c 0
 619 976 612 964 605 949 c 2
 480 699 l 1
 746 705 l 2
 750 705 753 705 757 705 c 0
 785 705 802 700 802 669 c 0
 802 639 785 634 759 634 c 0
 756 634 752 634 749 634 c 2
 485 641 l 1
 627 406 l 2
 636 390 641 377 643 366 c 1
 643 353 623 334 603 334 c 0
 587 334 577 349 565 371 c 2
 436 606 l 1
 325 362 l 2
 314 338 306 322 290 322 c 0
 263 322 248 343 248 354 c 0
 248 364 254 376 262 391 c 2
 387 641 l 1
 121 635 l 2
 116 635 112 635 108 635 c 0
 80 635 65 639 65 671 c 0
 65 705 87 707 119 707 c 2
 381 699 l 1
 240 934 l 2
 230 950 225 962 224 973 c 0
 224 983 240 1006 264 1006 c 0
 280 1006 289 992 302 969 c 2
 431 733 l 1
EndSplineSet
EndChar

StartChar: plus
Encoding: 33 43 12
Width: 797
Flags: MW
LayerCount: 2
Fore
SplineSet
107 511 m 2
 368 511 l 1
 368 742 l 2
 368 765 382 775 398 775 c 0
 413 775 428 765 428 742 c 2
 428 511 l 1
 690 511 l 2
 715 511 726 498 726 483 c 0
 726 470 715 457 690 457 c 2
 428 457 l 1
 428 224 l 2
 428 201 413 192 398 192 c 0
 382 192 368 201 368 224 c 2
 368 457 l 1
 107 457 l 2
 82 457 71 470 71 483 c 0
 71 498 82 511 107 511 c 2
EndSplineSet
EndChar

StartChar: comma
Encoding: 34 44 13
Width: 323
Flags: MW
LayerCount: 2
Fore
SplineSet
85 -124 m 1
 85 -88 l 1
 134 -88 148 -60 148 -21 c 1
 126 -14 99 6 99 46 c 0
 99 85 131 105 169 105 c 0
 200 105 237 81 237 31 c 0
 237 -37 187 -124 85 -124 c 1
EndSplineSet
EndChar

StartChar: hyphen
Encoding: 35 45 14
Width: 603
Flags: MW
LayerCount: 2
Fore
SplineSet
122 518 m 2
 481 518 l 2
 500 518 508 497 508 480 c 0
 508 464 500 444 481 444 c 2
 122 444 l 2
 103 444 95 464 95 480 c 0
 95 497 103 518 122 518 c 2
EndSplineSet
EndChar

StartChar: period
Encoding: 36 46 15
Width: 312
Flags: MW
LayerCount: 2
Fore
SplineSet
93 52 m 0
 93 90 118 117 157 117 c 0
 193 117 223 90 223 52 c 0
 223 15 193 -10 157 -10 c 0
 118 -10 93 15 93 52 c 0
EndSplineSet
EndChar

StartChar: slash
Encoding: 37 47 16
Width: 602
Flags: MW
LayerCount: 2
Fore
SplineSet
543 1098 m 2
 131 4 l 1
 116 -27 110 -53 86 -53 c 0
 56 -53 49 -32 49 -17 c 1
 48 -3 55 9 61 25 c 2
 471 1118 l 1
 480 1149 489 1176 520 1176 c 0
 548 1176 553 1158 553 1141 c 0
 553 1127 548 1112 543 1098 c 2
EndSplineSet
EndChar

StartChar: zero
Encoding: 38 48 17
Width: 1060
Flags: MW
LayerCount: 2
Fore
SplineSet
92 557 m 0
 92 905 167 1135 530 1135 c 0
 893 1135 968 905 968 557 c 0
 968 209 893 -21 530 -21 c 0
 167 -21 92 209 92 557 c 0
892 557 m 0
 892 905 822 1069 530 1069 c 0
 242 1069 168 905 168 557 c 0
 168 209 242 45 530 45 c 0
 822 45 892 209 892 557 c 0
EndSplineSet
EndChar

StartChar: one
Encoding: 39 49 18
Width: 452
Flags: MW
LayerCount: 2
Fore
SplineSet
313 1044 m 2
 313 70 l 2
 313 35 316 0 280 0 c 0
 241 0 241 35 241 70 c 2
 241 1044 l 1
 87 1044 l 2
 60 1044 24 1041 24 1073 c 0
 24 1114 64 1114 85 1114 c 2
 278 1114 l 2
 317 1114 313 1076 313 1044 c 2
EndSplineSet
EndChar

StartChar: two
Encoding: 40 50 19
Width: 925
Flags: MW
LayerCount: 2
Back
SplineSet
447 1065 m 4
 330 1065 230 1038 155 1015 c 4
 146 1012 138 1010 129 1010 c 4
 106 1010 93 1021 93 1036 c 4
 93 1087 298 1134 447 1134 c 4
 741 1134 857 1011 857 823 c 4
 857 366 152 499 152 70 c 5
 752 70 l 6
 783 70 797 53 797 34 c 4
 797 15 783 -2 752 -2 c 6
 119 -2 l 6
 80 -2 80 18 80 70 c 4
 80 541 783 446 783 823 c 4
 783 996 654 1065 447 1065 c 4
EndSplineSet
Fore
SplineSet
770.221679688 761.340820312 m 0
 770.221679688 979.757739517 628.705999616 1065 433 1065 c 0
 321.609589041 1065 226.404109589 1038 155 1015 c 0
 146 1012 138 1010 129 1010 c 0
 106 1010 93 1021 93 1036 c 0
 93 1087 289.892655367 1134 433 1134 c 0
 709.188798798 1134 844.088741891 990.954561782 844.088741891 756.630624515 c 0
 844.088741891 365.106187132 213.202712021 304.612753191 152 70 c 1
 774 70 l 2
 805 70 819 53 819 34 c 0
 819 15 805 -2 774 -2 c 2
 119 -2 l 2
 91.2008825353 -2 74.5742919895 9.18862361453 74.5742919895 33.6812181979 c 0
 74.5742919895 364.1189006 770.221679688 382.529455503 770.221679688 761.340820312 c 0
EndSplineSet
EndChar

StartChar: three
Encoding: 41 51 20
Width: 946
Flags: MW
LayerCount: 2
Back
SplineSet
832.976476519 862.438724384 m 4xf8
 832.976476519 754.650811161 784.049695832 638.720701381 596 604 c 5
 767.888334057 575 859 464 859 307 c 4
 859 122 760 -21 445 -21 c 4
 287 -21 91 28 91 77 c 4
 91 92 104.519204822 107.859408213 127 103 c 4
 196.393620144 87.7368421053 260.999984741 45 445 45 c 4
 721 45 793 155.233962264 793 313 c 4xf4
 793 446 716 570 431 570 c 6
 289 570 l 6
 265 570 254 586 254 602 c 4
 254 618 265 634 289 634 c 6
 431 634 l 6
 693.972280292 634 761.567892634 739.185149338 761.567892634 856.894021589 c 4
 761.567892634 963.709094588 698.874471355 1074 448 1074 c 4
 304.407284768 1074 153 1018.36734694 153 1016 c 5
 144 1013 136 1011 127 1011 c 4
 104 1011 91 1022 91 1037 c 4
 91 1088 296 1135 445 1135 c 4
 745.408492235 1135 832.976476519 994.749307392 832.976476519 862.438724384 c 4xf8
EndSplineSet
Fore
SplineSet
95.1160714559 1037.43763393 m 0
 95.1160714559 1102.72062573 326.120855733 1135 445 1135 c 0
 745.408492235 1135 832.976476519 994.749307392 832.976476519 862.438724384 c 0
 832.976476519 754.650811161 784.049695832 638.720701381 596 604 c 1
 769.674146478 574.698708115 859.05522238 462.070841801 859.05522238 300.250725414 c 0
 859.05522238 119.490773027 739.346529148 -21 445 -21 c 0
 287 -21 91 28 91 77 c 0
 91 92 104.519204822 107.859408213 127 103 c 0
 196.393620144 87.7368421053 260.999984741 45 445 45 c 0
 698.973336087 45 791.126175123 150.65876683 791.126175123 303.137231947 c 0
 791.126175123 444.770252382 718.11324156 570 431 570 c 2
 289 570 l 2
 265 570 254 586 254 602 c 0
 254 618 265 634 289 634 c 2
 422 634 l 2
 692.131930625 634 761.567892634 739.185149338 761.567892634 856.894021589 c 0
 761.567892634 963.709094588 698.874471355 1074 448 1074 c 0
 304.407284768 1074 229.74280918 1052.22798398 153 1016 c 0
 143.289765062 1010.80768702 134.458147964 1008.62640618 126.780339709 1008.62640618 c 0
 107.193749648 1008.62640618 95.1160714559 1022.82203804 95.1160714559 1037.43763393 c 0
EndSplineSet
EndChar

StartChar: four
Encoding: 42 52 21
Width: 1058
Flags: MW
LayerCount: 2
Fore
SplineSet
1044 381 m 0
 1044 352 1007 347 962 347 c 0
 942 347 919 348 898 348 c 2
 753 348 l 1
 753 70 l 2
 753 35 753 0 718 0 c 0
 679 0 681 35 681 70 c 2
 681 348 l 1
 173 348 l 2
 100 348 100 383 100 418 c 2
 100 1047 l 2
 100 1079 100 1114 139 1114 c 0
 174 1114 173 1076 173 1047 c 2
 173 418 l 1
 681 418 l 1
 681 1044 l 2
 681 1079 679 1114 718 1114 c 0
 753 1114 753 1079 753 1044 c 2
 753 418 l 1
 972 418 l 2
 1016 418 1044 420 1044 381 c 0
EndSplineSet
EndChar

StartChar: five
Encoding: 43 53 22
Width: 869
Flags: MW
LayerCount: 2
Fore
SplineSet
439 29 m 0
 659 29 730 149 730 328 c 0
 730 475 660 537 439 537 c 2
 189 537 l 2
 152 537 106 535 106 592 c 0
 106 597 106 602 107 607 c 2
 147 1024 l 2
 150 1056 148 1094 220 1094 c 2
 658 1094 l 2
 684 1094 698 1077 698 1059 c 0
 698 1042 684 1025 658 1025 c 2
 220 1025 l 1
 180 607 l 1
 439 607 l 2
 659 607 804 536 804 324 c 0
 804 52 659 -40 439 -40 c 0
 281 -40 85 9 85 58 c 0
 85 73 98 84 121 84 c 0
 148 84 199 63 239 54 c 0
 295 41 367 29 439 29 c 0
EndSplineSet
EndChar

StartChar: six
Encoding: 44 54 23
Width: 1023
Flags: MW
LayerCount: 2
Fore
SplineSet
170 526 m 1
 170 162 260 49 516 49 c 0
 797 49 872 176 872 306 c 0
 872 532 750 557 499 557 c 0
 332 557 236 542 170 526 c 1
93 557 m 0
 93 975 181 1134 545 1134 c 0
 703 1134 899 1085 899 1036 c 0
 899 1021 886 1010 863 1010 c 0
 836 1010 785 1031 745 1040 c 0
 689 1053 617 1065 545 1065 c 0
 306 1065 170 1020 170 579 c 1
 215 601 300 627 499 627 c 0
 795 627 948 562 948 298 c 0
 948 135 836 -20 512 -20 c 0
 203 -20 93 127 93 557 c 0
EndSplineSet
EndChar

StartChar: seven
Encoding: 45 55 24
Width: 707
Flags: MW
LayerCount: 2
Fore
SplineSet
675 1024 m 2
 251 57 l 2
 240 33 224 23 209 23 c 0
 190 23 176 37 176 60 c 0
 176 67 177 75 180 82 c 2
 599 1044 l 1
 74 1044 l 2
 49 1044 36 1060 36 1079 c 0
 36 1096 49 1114 74 1114 c 2
 629 1114 l 2
 670 1114 683 1090 683 1063 c 0
 683 1049 680 1036 675 1024 c 2
EndSplineSet
EndChar

StartChar: eight
Encoding: 46 56 25
Width: 1030
Flags: MW
LayerCount: 2
Fore
SplineSet
515 637 m 0
 771 637 845 744 845 851 c 0
 845 954 782 1069 515 1069 c 0
 248 1069 185 954 185 851 c 0
 185 744 259 637 515 637 c 0
515 -21 m 0
 199 -21 87 122 87 307 c 0
 87 465 160 569 366 604 c 1
 165 631 114 759 114 850 c 0
 114 989 196 1135 515 1135 c 0
 834 1135 916 989 916 850 c 0
 916 759 865 631 664 604 c 1
 870 569 943 465 943 307 c 0
 943 122 831 -21 515 -21 c 0
515 567 m 0
 230 567 153 446 153 313 c 0
 153 158 240 45 515 45 c 0
 790 45 877 158 877 313 c 0
 877 446 800 567 515 567 c 0
EndSplineSet
EndChar

StartChar: nine
Encoding: 47 57 26
Width: 1023
Flags: MW
LayerCount: 2
Fore
SplineSet
852 588 m 1
 852 952 762 1065 506 1065 c 0
 225 1065 150 938 150 808 c 0
 150 582 272 557 523 557 c 0
 690 557 786 572 852 588 c 1
929 557 m 0
 929 139 841 -20 477 -20 c 0
 319 -20 123 29 123 78 c 0
 123 93 136 104 159 104 c 0
 186 104 237 83 277 74 c 0
 333 61 405 49 477 49 c 0
 716 49 852 94 852 535 c 1
 807 513 722 487 523 487 c 0
 227 487 74 552 74 816 c 0
 74 979 186 1134 510 1134 c 0
 819 1134 929 987 929 557 c 0
EndSplineSet
EndChar

StartChar: colon
Encoding: 48 58 27
Width: 393
Flags: MW
LayerCount: 2
Fore
SplineSet
133 204 m 0
 133 242 158 269 197 269 c 0
 233 269 263 242 263 204 c 0
 263 167 233 142 197 142 c 0
 158 142 133 167 133 204 c 0
133 561 m 0
 133 599 158 626 197 626 c 0
 233 626 263 599 263 561 c 0
 263 524 233 499 197 499 c 0
 158 499 133 524 133 561 c 0
EndSplineSet
EndChar

StartChar: semicolon
Encoding: 49 59 28
Width: 379
Flags: MW
LayerCount: 2
Fore
SplineSet
125 35 m 1
 125 71 l 1
 174 71 188 99 188 138 c 1
 166 145 139 165 139 205 c 0
 139 244 171 264 209 264 c 0
 240 264 277 240 277 190 c 0
 277 122 227 35 125 35 c 1
123 561 m 0
 123 599 148 626 187 626 c 0
 223 626 253 599 253 561 c 0
 253 524 223 499 187 499 c 0
 148 499 123 524 123 561 c 0
EndSplineSet
EndChar

StartChar: less
Encoding: 50 60 29
Width: 775
Flags: MW
LayerCount: 2
Fore
SplineSet
65 335 m 0
 65 364 84 373 116 388 c 2
 620 622 l 2
 628 625 633 627 640 627 c 0
 660 627 674 610 674 591 c 0
 674 576 667 565 653 559 c 2
 166 335 l 1
 653 112 l 2
 668 105 674 92 674 79 c 0
 674 62 660 44 640 44 c 0
 633 44 627 46 620 49 c 2
 116 283 l 2
 84 298 65 307 65 335 c 0
EndSplineSet
EndChar

StartChar: equal
Encoding: 51 61 30
Width: 906
Flags: MW
LayerCount: 2
Fore
SplineSet
781 638 m 0
 781 623 773 609 756 609 c 2
 151 609 l 2
 134 609 127 623 127 638 c 0
 127 653 134 667 151 667 c 2
 756 667 l 2
 773 667 781 653 781 638 c 0
779 499 m 0
 779 484 771 470 754 470 c 2
 149 470 l 2
 132 470 125 484 125 499 c 0
 125 514 132 528 149 528 c 2
 754 528 l 2
 771 528 779 514 779 499 c 0
EndSplineSet
EndChar

StartChar: greater
Encoding: 52 62 31
Width: 773
Flags: MW
LayerCount: 2
Fore
SplineSet
708 335 m 0
 708 307 689 298 657 283 c 2
 153 49 l 2
 146 46 140 44 133 44 c 0
 113 44 99 62 99 79 c 0
 99 92 105 105 120 112 c 2
 607 335 l 1
 120 559 l 2
 106 565 99 576 99 591 c 0
 99 610 113 627 133 627 c 0
 140 627 145 625 153 622 c 2
 657 388 l 2
 689 373 708 364 708 335 c 0
EndSplineSet
EndChar

StartChar: question
Encoding: 53 63 32
Width: 888
Flags: MW
LayerCount: 2
Fore
SplineSet
203 46 m 0
 203 81 226 105 261 105 c 0
 294 105 321 81 321 46 c 0
 321 13 294 -10 261 -10 c 0
 226 -10 203 13 203 46 c 0
295 480 m 1
 295 264 l 2
 295 225 295 194 262 194 c 0
 223 194 223 226 223 262 c 2
 223 512 l 2
 223 528 234 544 258 544 c 0
 691 544 762 669 762 801 c 0
 762 957 690 1066 414 1066 c 0
 297 1066 197 1039 122 1016 c 0
 113 1013 105 1011 96 1011 c 0
 73 1011 60 1022 60 1037 c 0
 60 1088 265 1135 414 1135 c 0
 729 1135 828 992 828 807 c 0
 828 654 783 488 295 480 c 1
EndSplineSet
EndChar

StartChar: at
Encoding: 54 64 33
Width: 1334
Flags: MW
LayerCount: 2
Fore
SplineSet
923 321 m 1
 945 686 l 1
 893 708 817 735 730 735 c 0
 571 735 404 641 404 433 c 0
 404 276 476 198 639 198 c 0
 772 198 868 266 904 302 c 2
 923 321 l 1
1055 -48 m 0
 980 -82 876 -119 721 -119 c 0
 268 -119 73 94 73 457 c 0
 73 796 313 1031 723 1031 c 0
 1079 1031 1268 870 1268 573 c 0
 1268 296 1190 116 1038 116 c 0
 965 116 921 160 921 253 c 1
 877 199 790 132 634 132 c 0
 407 132 325 271 325 424 c 0
 325 700 540 801 724 801 c 0
 853 801 921 759 950 730 c 1
 957 763 964 781 985 781 c 0
 1008 781 1023 766 1023 718 c 0
 1023 702 1022 648 998 331 c 0
 997 314 994 289 994 262 c 0
 994 219 1002 176 1043 176 c 0
 1134 176 1192 323 1192 575 c 0
 1192 835 1032 972 723 972 c 0
 363 972 150 764 150 457 c 0
 150 134 303 -60 723 -60 c 0
 862 -60 966 -27 1037 5 c 0
 1044 8 1049 9 1054 9 c 0
 1070 9 1078 -2 1078 -15 c 0
 1078 -27 1071 -41 1055 -48 c 0
EndSplineSet
EndChar

StartChar: A
Encoding: 55 65 34
Width: 1349
Flags: MW
LayerCount: 2
Fore
SplineSet
347 401 m 1
 1001 401 l 1
 674 998 l 1
 347 401 l 1
71 68 m 2
 622 1063 l 2
 643 1102 650 1114 674 1114 c 0
 693 1114 704 1103 726 1063 c 2
 1278 67 l 2
 1286 53 1289 40 1289 28 c 0
 1289 4 1274 -10 1255 -10 c 0
 1237 -10 1218 1 1200 34 c 2
 1030 342 l 1
 318 342 l 1
 146 30 l 2
 131 2 110 -10 92 -10 c 0
 69 -10 59 7 59 34 c 0
 59 44 64 55 71 68 c 2
EndSplineSet
EndChar

StartChar: B
Encoding: 56 66 35
Width: 1408
Flags: MW
LayerCount: 2
Fore
SplineSet
1193 326 m 0
 1193 510 1009 564 718 564 c 2
 245 564 l 1
 245 66 l 1
 808 66 l 2
 1169 66 1193 193 1193 326 c 0
1134 836 m 0
 1134 972 1062 1048 694 1048 c 2
 245 1048 l 1
 245 619 l 1
 718 619 l 2
 1006 619 1134 656 1134 836 c 0
1278 326 m 1
 1278 55 1056 0 770 0 c 2
 194 0 l 2
 171 0 160 15 160 35 c 2
 160 1077 l 2
 160 1101 176 1114 199 1114 c 2
 657 1114 l 2
 946 1114 1219 1108 1219 836 c 0
 1219 591 976 593 959 594 c 1
 1121 578 1275 522 1278 326 c 1
EndSplineSet
EndChar

StartChar: C
Encoding: 57 67 36
Width: 1489
Flags: MW
LayerCount: 2
Fore
SplineSet
123 557 m 0
 123 972 377 1135 873 1135 c 0
 1045 1135 1206 1105 1373 1036 c 0
 1394 1027 1403 1011 1403 998 c 0
 1403 982 1390 968 1371 968 c 0
 1365 968 1359 970 1352 973 c 0
 1199 1037 1028 1069 873 1069 c 0
 398 1069 208 916 208 557 c 0
 208 198 398 45 873 45 c 0
 1028 45 1199 77 1352 141 c 0
 1358 143 1365 145 1370 145 c 0
 1390 145 1404 131 1404 115 c 0
 1404 102 1395 87 1373 78 c 0
 1206 9 1045 -21 873 -21 c 0
 377 -21 123 142 123 557 c 0
EndSplineSet
EndChar

StartChar: D
Encoding: 58 68 37
Width: 1670
Flags: MW
LayerCount: 2
Fore
SplineSet
1462 559 m 0
 1462 903 1321 1048 887 1048 c 2
 245 1048 l 1
 245 66 l 1
 887 66 l 2
 1321 66 1462 210 1462 559 c 0
1547 559 m 0
 1547 133 1322 0 887 0 c 2
 199 0 l 2
 160 0 160 0 160 35 c 2
 160 1077 l 2
 160 1116 160 1114 201 1114 c 2
 887 1114 l 2
 1322 1114 1547 975 1547 559 c 0
EndSplineSet
EndChar

StartChar: E
Encoding: 59 69 38
Width: 1302
Flags: MW
LayerCount: 2
Fore
SplineSet
1187 35 m 0
 1187 -4 1160 1 1121 0 c 1
 200 0 l 2
 195 0 191 0 187 0 c 0
 161 0 161 4 161 35 c 2
 161 1067 l 2
 161 1106 159 1114 198 1114 c 2
 1111 1114 l 2
 1150 1114 1185 1118 1185 1079 c 0
 1185 1046 1150 1048 1111 1048 c 2
 246 1048 l 1
 246 610 l 1
 1106 610 l 2
 1135 610 1158 604 1158 578 c 0
 1158 549 1139 542 1113 542 c 2
 246 542 l 1
 246 66 l 1
 1113 66 l 2
 1152 66 1187 68 1187 35 c 0
EndSplineSet
EndChar

StartChar: F
Encoding: 60 70 39
Width: 1239
Flags: MW
LayerCount: 2
Fore
SplineSet
246 528 m 1
 246 70 l 2
 246 31 237 0 205 0 c 0
 166 0 161 32 161 68 c 2
 161 1077 l 2
 161 1116 159 1114 198 1114 c 2
 1176 1114 l 2
 1211 1114 1239 1114 1239 1079 c 0
 1239 1048 1215 1048 1176 1048 c 2
 246 1048 l 1
 246 594 l 1
 1033 594 l 2
 1072 594 1099 594 1099 563 c 0
 1099 528 1068 528 1033 528 c 2
 246 528 l 1
EndSplineSet
EndChar

StartChar: G
Encoding: 61 71 40
Width: 1623
Flags: MW
LayerCount: 2
Fore
SplineSet
873 45 m 0
 1070 45 1256 74 1437 118 c 1
 1437 536 l 1
 927 536 l 2
 895 536 856 536 856 571 c 0
 856 606 893 606 927 606 c 2
 1437 606 l 2
 1493 606 1509 587 1509 536 c 2
 1509 118 l 2
 1509 77 1472 56 1437 49 c 0
 1240 10 1057 -21 873 -21 c 0
 377 -21 123 142 123 557 c 0
 123 972 377 1135 873 1135 c 0
 1045 1135 1206 1105 1373 1036 c 0
 1394 1027 1403 1011 1403 998 c 0
 1403 982 1390 968 1371 968 c 0
 1365 968 1359 970 1352 973 c 0
 1199 1037 1028 1069 873 1069 c 0
 398 1069 208 916 208 557 c 0
 208 198 398 45 873 45 c 0
EndSplineSet
EndChar

StartChar: H
Encoding: 62 72 41
Width: 1373
Flags: MW
LayerCount: 2
Fore
SplineSet
159 70 m 2
 159 1044 l 2
 159 1079 166 1114 207 1114 c 0
 236 1114 244 1077 244 1044 c 2
 244 606 l 1
 1129 606 l 1
 1129 1044 l 2
 1129 1079 1132 1114 1171 1114 c 0
 1211 1114 1214 1079 1214 1044 c 2
 1214 70 l 2
 1214 35 1211 0 1172 0 c 0
 1132 0 1129 35 1129 70 c 2
 1129 544 l 1
 244 544 l 1
 244 70 l 2
 244 37 234 0 205 0 c 0
 164 0 159 35 159 70 c 2
EndSplineSet
EndChar

StartChar: I
Encoding: 63 73 42
Width: 1031
Flags: MW
LayerCount: 2
Fore
SplineSet
473 66 m 1
 473 1048 l 1
 116 1048 l 2
 81 1048 43 1046 43 1079 c 0
 43 1118 84 1114 116 1114 c 2
 915 1114 l 2
 954 1114 987 1117 987 1081 c 0
 987 1045 954 1048 915 1048 c 2
 558 1048 l 1
 558 66 l 1
 915 66 l 2
 954 66 987 69 987 33 c 0
 987 -3 954 0 915 0 c 2
 116 0 l 2
 84 0 43 -4 43 35 c 0
 43 68 81 66 116 66 c 2
 473 66 l 1
EndSplineSet
EndChar

StartChar: J
Encoding: 64 74 43
Width: 1057
Flags: MW
LayerCount: 2
Fore
SplineSet
898 1044 m 2
 898 594 l 2
 898 178 800 -20 467 -20 c 0
 240 -20 58 25 7 214 c 0
 4 222 3 230 3 238 c 0
 3 265 18 277 37 277 c 0
 54 277 73 264 80 240 c 1
 122 57 310 49 467 49 c 0
 750 49 813 240 813 594 c 2
 813 1044 l 2
 813 1083 819 1114 858 1114 c 0
 893 1114 898 1076 898 1044 c 2
EndSplineSet
EndChar

StartChar: K
Encoding: 65 75 44
Width: 1229
Flags: MW
LayerCount: 2
Fore
SplineSet
1098 1044 m 2
 516 621 l 1
 1099 77 l 2
 1112 65 1119 50 1119 37 c 0
 1119 17 1104 0 1084 0 c 0
 1073 0 1062 5 1051 15 c 2
 453 580 l 1
 246 444 l 1
 246 70 l 2
 246 31 236 0 204 0 c 0
 165 0 160 32 160 68 c 2
 160 1048 l 2
 160 1087 167 1114 206 1114 c 0
 238 1114 246 1085 246 1050 c 2
 246 524 l 1
 1047 1099 l 2
 1062 1110 1076 1114 1087 1114 c 0
 1108 1114 1120 1101 1120 1082 c 0
 1120 1067 1113 1055 1098 1044 c 2
EndSplineSet
EndChar

StartChar: L
Encoding: 66 76 45
Width: 1145
Flags: MW
LayerCount: 2
Fore
SplineSet
1104 0 m 2
 201 0 l 2
 160 0 160 2 160 37 c 2
 160 1049 l 2
 160 1084 168 1114 207 1114 c 0
 239 1114 245 1081 245 1049 c 2
 245 66 l 1
 1104 66 l 2
 1131 66 1145 49 1145 33 c 0
 1145 16 1131 0 1104 0 c 2
EndSplineSet
EndChar

StartChar: M
Encoding: 67 77 46
Width: 1768
Flags: MW
LayerCount: 2
Fore
SplineSet
264 1071 m 2
 884 139 l 1
 1504 1071 l 2
 1524 1102 1545 1114 1565 1114 c 0
 1590 1114 1609 1091 1609 1060 c 2
 1609 70 l 2
 1609 31 1605 0 1566 0 c 0
 1533 0 1524 31 1524 70 c 2
 1524 958 l 1
 933 86 l 2
 917 63 901 52 884 52 c 0
 867 52 850 63 835 86 c 2
 244 958 l 1
 244 70 l 2
 244 31 235 0 202 0 c 0
 163 0 159 31 159 70 c 2
 159 1060 l 2
 159 1091 178 1114 203 1114 c 0
 222 1114 243 1102 264 1071 c 2
EndSplineSet
EndChar

StartChar: N
Encoding: 68 78 47
Width: 1527
Flags: MW
LayerCount: 2
Fore
SplineSet
259 1081 m 2
 1282 128 l 1
 1282 1038 l 2
 1282 1077 1285 1114 1325 1114 c 0
 1360 1114 1367 1079 1367 1038 c 2
 1367 64 l 2
 1367 21 1356 0 1333 0 c 0
 1318 0 1299 10 1276 31 c 2
 245 986 l 1
 245 70 l 2
 245 31 236 0 204 0 c 0
 165 0 160 31 160 70 c 2
 160 1049 l 2
 160 1089 176 1111 201 1111 c 0
 218 1111 237 1101 259 1081 c 2
EndSplineSet
EndChar

StartChar: O
Encoding: 69 79 48
Width: 1715
Flags: MW
LayerCount: 2
Fore
SplineSet
208 557 m 0
 208 185 420 45 857 45 c 0
 1294 45 1507 185 1507 557 c 0
 1507 929 1294 1069 857 1069 c 0
 420 1069 208 929 208 557 c 0
1592 557 m 0
 1592 168 1364 -21 857 -21 c 0
 350 -21 123 168 123 557 c 0
 123 946 350 1135 857 1135 c 0
 1364 1135 1592 946 1592 557 c 0
EndSplineSet
EndChar

StartChar: P
Encoding: 70 80 49
Width: 1187
Flags: MW
LayerCount: 2
Fore
SplineSet
1069 717 m 0
 1069 995 905 1048 543 1048 c 2
 245 1048 l 1
 245 410 l 1
 543 410 l 2
 907 410 1069 437 1069 717 c 0
1154 717 m 0
 1154 354 873 348 543 348 c 2
 245 348 l 1
 245 76 l 2
 245 37 238 0 206 0 c 0
 167 0 160 35 160 76 c 2
 160 1077 l 2
 160 1116 172 1114 211 1114 c 2
 543 1114 l 2
 907 1114 1154 1065 1154 717 c 0
EndSplineSet
EndChar

StartChar: Q
Encoding: 71 81 50
Width: 1715
Flags: MW
LayerCount: 2
Fore
SplineSet
208 557 m 0
 208 185 420 45 857 45 c 0
 894 45 929 46 963 48 c 1
 951 109 l 2
 948 124 945 138 945 150 c 0
 945 168 953 187 981 187 c 0
 1009 187 1015 158 1021 126 c 2
 1035 54 l 1
 1352 91 1507 240 1507 557 c 0
 1507 929 1294 1069 857 1069 c 0
 420 1069 208 929 208 557 c 0
1592 557 m 0
 1592 221 1422 34 1049 -10 c 1
 1074 -133 l 2
 1077 -149 1080 -164 1080 -176 c 0
 1080 -195 1072 -209 1045 -209 c 0
 1016 -209 1010 -180 1004 -150 c 2
 977 -17 l 1
 939 -19 899 -21 857 -21 c 0
 350 -21 123 168 123 557 c 0
 123 946 350 1135 857 1135 c 0
 1364 1135 1592 946 1592 557 c 0
EndSplineSet
EndChar

StartChar: R
Encoding: 72 82 51
Width: 1256
Flags: MW
LayerCount: 2
Fore
SplineSet
1056 768 m 0
 1056 1033 858 1048 488 1048 c 2
 246 1048 l 1
 246 518 l 1
 621 518 l 2
 853 518 1056 548 1056 768 c 0
1141 768 m 0
 1141 525 912 464 718 456 c 1
 1086 69 l 2
 1098 57 1103 45 1103 33 c 0
 1103 15 1089 0 1069 0 c 0
 1055 0 1037 6 1021 24 c 2
 620 452 l 1
 246 452 l 1
 246 76 l 2
 246 37 240 0 208 0 c 0
 169 0 161 35 161 76 c 2
 161 1077 l 2
 161 1116 159 1114 198 1114 c 2
 488 1114 l 2
 860 1114 1141 1106 1141 768 c 0
EndSplineSet
EndChar

StartChar: S
Encoding: 73 83 52
Width: 1540
Flags: MW
LayerCount: 2
Fore
SplineSet
1427 311 m 0
 1427 55 1135 -20 829 -20 c 0
 545 -20 244 45 149 90 c 0
 130 99 122 114 122 129 c 0
 122 145 131 158 148 158 c 0
 152 158 157 157 162 155 c 0
 266 112 570 46 844 46 c 0
 1110 46 1342 110 1342 311 c 0
 1342 730 110 349 110 815 c 0
 110 1072 414 1135 716 1135 c 0
 963 1135 1209 1084 1311 1036 c 0
 1322 1031 1327 1020 1327 1009 c 0
 1327 990 1314 971 1291 971 c 0
 1285 971 1279 972 1274 975 c 0
 1134 1033 921 1069 720 1069 c 0
 443 1069 195 1012 195 821 c 0
 195 455 1427 814 1427 311 c 0
EndSplineSet
EndChar

StartChar: T
Encoding: 74 84 53
Width: 1343
Flags: MW
LayerCount: 2
Fore
SplineSet
1325 1077 m 0
 1325 1044 1292 1048 1253 1048 c 2
 716 1048 l 1
 716 74 l 2
 716 35 713 0 674 0 c 0
 639 0 631 35 631 74 c 2
 631 1048 l 1
 92 1048 l 2
 55 1048 18 1044 18 1077 c 0
 18 1116 59 1114 92 1114 c 2
 1253 1114 l 2
 1292 1114 1325 1116 1325 1077 c 0
EndSplineSet
EndChar

StartChar: U
Encoding: 75 85 54
Width: 1586
Flags: MW
LayerCount: 2
Fore
SplineSet
794 45 m 0
 1230 45 1360 212 1360 560 c 2
 1360 1044 l 2
 1360 1079 1368 1114 1401 1114 c 0
 1440 1114 1445 1079 1445 1044 c 2
 1445 560 l 2
 1445 143 1230 -21 794 -21 c 0
 358 -21 141 143 141 560 c 2
 141 1044 l 2
 141 1079 147 1114 186 1114 c 0
 219 1114 226 1079 226 1044 c 2
 226 560 l 2
 226 212 358 45 794 45 c 0
EndSplineSet
EndChar

StartChar: V
Encoding: 76 86 55
Width: 1427
Flags: MW
LayerCount: 2
Fore
SplineSet
142 1064 m 2
 714 90 l 1
 1285 1064 l 2
 1300 1089 1315 1110 1334 1113 c 1
 1359 1113 1369 1093 1369 1078 c 0
 1369 1063 1358 1046 1348 1029 c 2
 765 35 l 2
 751 11 731 0 713 0 c 0
 693 0 675 13 662 35 c 2
 77 1029 l 2
 66 1048 58 1064 58 1080 c 0
 58 1091 68 1113 91 1113 c 1
 114 1110 127 1089 142 1064 c 2
EndSplineSet
EndChar

StartChar: W
Encoding: 77 87 56
Width: 1792
Flags: MW
LayerCount: 2
Fore
SplineSet
944 1059 m 2
 1276 125 l 1
 1610 1059 l 2
 1620 1086 1632 1114 1655 1114 c 0
 1682 1114 1690 1096 1690 1081 c 0
 1690 1066 1685 1051 1678 1032 c 2
 1325 53 l 1
 1310 22 1303 0 1276 0 c 0
 1249 0 1240 22 1229 53 c 2
 895 981 l 1
 563 53 l 2
 552 22 539 0 514 0 c 0
 487 0 478 22 467 53 c 2
 115 1032 l 2
 108 1051 101 1066 101 1081 c 0
 101 1096 110 1114 137 1114 c 0
 162 1114 173 1086 183 1059 c 2
 514 125 l 1
 848 1059 l 2
 858 1086 869 1114 893 1114 c 0
 924 1114 932 1092 944 1059 c 2
EndSplineSet
EndChar

StartChar: X
Encoding: 78 88 57
Width: 1435
Flags: MW
LayerCount: 2
Fore
SplineSet
221 1093 m 2
 717 596 l 1
 1213 1093 l 2
 1227 1107 1241 1113 1253 1113 c 0
 1271 1113 1284 1098 1284 1079 c 0
 1284 1068 1279 1054 1267 1042 c 2
 769 547 l 1
 1276 75 l 2
 1293 59 1300 41 1300 28 c 0
 1300 12 1289 0 1273 0 c 0
 1260 0 1244 7 1226 24 c 2
 717 498 l 1
 208 23 l 2
 190 6 173 0 161 0 c 0
 144 0 133 11 133 27 c 0
 133 41 141 58 158 74 c 2
 665 547 l 1
 167 1042 l 2
 155 1054 149 1067 149 1079 c 0
 149 1098 162 1113 181 1113 c 0
 193 1113 207 1107 221 1093 c 2
EndSplineSet
EndChar

StartChar: Y
Encoding: 79 89 58
Width: 1165
Flags: MW
LayerCount: 2
Fore
SplineSet
126 1089 m 2
 583 535 l 1
 1040 1089 l 2
 1054 1106 1069 1113 1082 1113 c 0
 1103 1113 1115 1099 1115 1077 c 0
 1115 1066 1109 1053 1098 1040 c 2
 626 471 l 1
 626 69 l 2
 626 30 619 0 586 0 c 0
 547 0 541 32 541 67 c 2
 541 473 l 1
 67 1040 l 2
 54 1055 50 1066 50 1080 c 0
 50 1100 64 1114 83 1114 c 0
 96 1114 112 1106 126 1089 c 2
EndSplineSet
EndChar

StartChar: Z
Encoding: 80 90 59
Width: 1335
Flags: MW
LayerCount: 2
Fore
SplineSet
1257 1026 m 1
 172 66 l 1
 1212 66 l 2
 1243 66 1259 49 1259 33 c 0
 1259 16 1243 0 1212 0 c 2
 120 0 l 2
 71 0 47 0 47 36 c 0
 47 57 58 69 79 88 c 2
 1163 1048 l 1
 120 1048 l 2
 89 1048 75 1064 75 1081 c 0
 75 1097 89 1114 120 1114 c 2
 1208 1114 l 2
 1255 1114 1290 1112 1290 1079 c 0
 1290 1060 1272 1042 1257 1026 c 1
EndSplineSet
EndChar

StartChar: bracketleft
Encoding: 81 91 60
Width: 391
Flags: MW
LayerCount: 2
Fore
SplineSet
332 -174 m 0
 332 -205 300 -209 261 -209 c 2
 154 -209 l 2
 114 -209 115 -178 115 -139 c 2
 115 1253 l 2
 115 1292 115 1323 156 1323 c 2
 261 1323 l 2
 300 1323 332 1323 332 1290 c 0
 332 1251 300 1253 261 1253 c 2
 187 1253 l 1
 187 -139 l 1
 217 -139 244 -138 265 -138 c 0
 308 -138 332 -143 332 -174 c 0
EndSplineSet
EndChar

StartChar: backslash
Encoding: 82 92 61
Width: 644
Flags: MW
LayerCount: 2
Fore
SplineSet
129 1118 m 1
 582 16 l 1
 593 -7 596 -22 596 -33 c 0
 596 -48 586 -63 561 -63 c 0
 537 -63 525 -37 514 -10 c 2
 62 1092 l 1
 51 1115 47 1130 47 1141 c 0
 47 1156 57 1174 84 1174 c 0
 108 1174 116 1145 129 1118 c 1
EndSplineSet
EndChar

StartChar: bracketright
Encoding: 83 93 62
Width: 390
Flags: MW
LayerCount: 2
Fore
SplineSet
58 -174 m 0
 58 -132 117 -139 204 -139 c 1
 204 1253 l 1
 130 1253 l 2
 95 1253 58 1251 58 1290 c 0
 58 1323 95 1323 130 1323 c 2
 234 1323 l 2
 275 1323 275 1292 275 1253 c 2
 275 -139 l 2
 275 -178 276 -209 236 -209 c 2
 130 -209 l 2
 95 -209 58 -205 58 -174 c 0
EndSplineSet
EndChar

StartChar: asciicircum
Encoding: 84 94 63
Width: 619
Flags: MW
LayerCount: 2
Fore
SplineSet
494 997 m 1
 312 1204 l 1
 172 1049 l 1
 149 1020 98 954 72 954 c 0
 53 954 39 976 39 987 c 0
 39 1005 54 1018 70 1038 c 0
 104 1082 262 1288 310 1288 c 0
 325 1288 337 1280 348 1272 c 1
 365 1255 l 1
 551 1038 l 1
 568 1022 580 1006 580 989 c 0
 580 978 570 954 547 954 c 0
 531 954 517 974 494 997 c 1
EndSplineSet
EndChar

StartChar: underscore
Encoding: 85 95 64
Width: 1511
Flags: MW
LayerCount: 2
Fore
SplineSet
1388 228 m 0
 1388 205 1377 184 1350 184 c 2
 160 184 l 2
 133 184 123 205 123 228 c 0
 123 251 133 272 160 272 c 2
 1350 272 l 2
 1377 272 1388 251 1388 228 c 0
EndSplineSet
EndChar

StartChar: quoteleft
Encoding: 384 8216 65
Width: 311
Flags: MW
LayerCount: 2
Fore
SplineSet
241 1131 m 1
 241 1080 l 1
 231 1080 l 2
 196 1080 187 1069 187 1054 c 0
 187 1030 215 992 222 976 c 0
 227 964 227 952 228 944 c 1
 228 901 194 874 155 874 c 0
 115 874 72 905 72 985 c 0
 72 1071 122 1134 206 1134 c 0
 217 1134 229 1133 241 1131 c 1
EndSplineSet
EndChar

StartChar: a
Encoding: 87 97 66
Width: 1191
Flags: MW
LayerCount: 2
Fore
SplineSet
963 421 m 1
 963 686.745582835 813.99304519 727.849443894 587.171889565 727.849443894 c 0
 379.237339006 727.849443894 290.670262585 697.025209376 227 676 c 0
 224 675 222 674 219 674 c 0
 203 674 187 694 187 712 c 0
 187 720 191 727 199 731 c 0
 220.607772785 741.564332371 344.113528172 786.233430422 615.647719953 786.233430422 c 0
 861.83058266 786.233430422 1044 723.482719623 1044 388 c 2
 1044 70 l 2
 1044 39 1040 0 1003 0 c 0
 972 0 963 31 963 74 c 2
 963 130 l 1
 903.552311436 68.6928104575 779.0486618 -10 502 -10 c 0
 296.870813397 -10 134 56 134 224 c 0
 134 419 308 477 532 477 c 0
 702 477 878 458.058823529 963 421 c 1
214 224 m 0
 214 97 331.090909091 49 494 49 c 0
 755.923627685 49 895.840095465 123 963 178 c 1
 963 379 l 1
 833 397 682 418 540 418 c 0
 335 418 214 376 214 224 c 0
EndSplineSet
EndChar

StartChar: b
Encoding: 88 98 67
Width: 1255
Flags: MW
LayerCount: 2
Fore
SplineSet
689 727 m 1
 529 724 287 691 239 524 c 1
 239 140 l 1
 353 97 503 49 689 49 c 0
 945 49 1052 153 1052 396 c 0
 1052 648 890 727 689 727 c 1
689 786 m 0
 929 786 1132 697 1132 396 c 0
 1132 97 972 -10 689 -10 c 0
 473 -10 329 48 239 97 c 1
 239 73 l 2
 239 34 237 0 198 0 c 0
 159 0 159 34 159 73 c 2
 159 1065 l 2
 159 1108 181 1114 201 1114 c 0
 221 1114 239 1108 239 1065 c 2
 239 587 l 1
 283 757 552 786 689 786 c 0
EndSplineSet
EndChar

StartChar: c
Encoding: 89 99 68
Width: 1132
Flags: MW
LayerCount: 2
Fore
SplineSet
628 727 m 0
 322 727 200 629 200 385 c 0
 200 140 342 49 627 49 c 0
 754 49 900 90 964 122 c 0
 971 125 978 127 985 127 c 0
 1002 127 1013 116 1013 101 c 0
 1013 90 1007 78 992 70 c 0
 876 10 745 -10 628 -10 c 0
 325 -10 120 74 120 385 c 0
 120 694 305 786 628 786 c 0
 745 786 876 766 992 706 c 0
 1007 698 1013 686 1013 675 c 0
 1013 660 1002 649 985 649 c 0
 978 649 971 651 964 654 c 0
 900 686 754 727 628 727 c 0
EndSplineSet
EndChar

StartChar: d
Encoding: 90 100 69
Width: 1255
Flags: MW
LayerCount: 2
Fore
SplineSet
566 49 m 1
 726 52 968 85 1016 252 c 1
 1016 612 l 1
 956 661 833 727 566 727 c 0
 310 727 203 623 203 380 c 0
 203 128 365 49 566 49 c 1
566 -10 m 0
 326 -10 123 79 123 380 c 0
 123 679 283 786 566 786 c 0
 846 786 965 710 1016 659 c 1
 1016 1043 l 2
 1016 1079 1016 1114 1055 1114 c 0
 1094 1114 1096 1084 1096 1045 c 2
 1096 54 l 2
 1096 11 1076 0 1057 0 c 0
 1034 0 1016 9 1016 52 c 2
 1016 191 l 1
 972 20 703 -10 566 -10 c 0
EndSplineSet
EndChar

StartChar: e
Encoding: 91 101 70
Width: 1130
Flags: MW
LayerCount: 2
Fore
SplineSet
201 389 m 1
 206.320251416 126.179580053 339.418970436 48.0246136829 592.194218823 48.0246136829 c 0
 815.279169513 48.0246136829 924.884521384 124.923014256 970 155 c 0
 973 157 975 157 978 157 c 0
 992 157 1008 140 1008 124 c 0
 1008 118 1005 111 998 106 c 1
 976.235971269 84.2359712692 856.872034828 -10.9518412441 593.306995719 -10.9518412441 c 0
 259.662297589 -10.9518412441 121 136.018565304 121 385 c 0
 121 694 331 786 600 786 c 0
 877 786 1015 676 1015 479 c 0
 1015 443 1002 379 991 379 c 2
 697 379 l 1
 201 389 l 1
600 727 m 0
 353 727 213 646 202 431 c 1
 956 431 l 1
 956 485 l 2
 956 618 864 727 600 727 c 0
EndSplineSet
EndChar

StartChar: f
Encoding: 92 102 71
Width: 689
Flags: MW
LayerCount: 2
Fore
SplineSet
264 816 m 2
 264 751 l 1
 629 751 l 2
 649 751 659 739 659 727 c 0
 659 715 648 703 629 703 c 2
 264 703 l 1
 264 49 l 2
 264 6 247 0 224 0 c 0
 205 0 184 6 184 49 c 2
 184 703 l 1
 96 703 l 2
 77 703 68 715 68 727 c 0
 68 739 77 751 96 751 c 2
 185 751 l 1
 185 816 l 2
 185 1032 276 1105 419 1105 c 0
 499 1105 558 1098 655 1066 c 0
 674 1059 686 1048 686 1035 c 0
 686 1025 675 1010 655 1010 c 0
 649 1010 643 1011 636 1014 c 0
 564 1039 497 1047 433 1047 c 0
 328 1047 264 1012 264 816 c 2
EndSplineSet
EndChar

StartChar: g
Encoding: 93 103 72
Width: 1239
Flags: MW
LayerCount: 2
Fore
SplineSet
602 -10 m 0
 295.647197619 -10 120.90827611 72.992124797 120.90827611 394.181369195 c 0
 120.90827611 692.336315925 319.478281303 786 611 786 c 0
 907.329639889 786 979.526315789 670 1000 594 c 1
 1000 618 997 651 997 682 c 0
 997 727 1003 766 1032 766 c 0
 1071 766 1080 728 1080 696 c 2
 1080 -23 l 2
 1080 -234 914 -340 621 -340 c 0
 428 -340 324.709599854 -297.481236314 254 -265 c 1
 227.263366709 -251.571933601 215.103834779 -230.46360874 215.103834779 -213.774712499 c 0
 215.103834779 -199.344425754 224.194832535 -188.218297088 240.813964737 -188.218297088 c 0
 248.249160323 -188.218297088 257.191155438 -190.445255913 267.5 -195.599609375 c 0
 339.749388573 -228.617331538 453.448466572 -270 621 -270 c 0
 840 -270 1000 -195 1000 -23 c 2
 1000 96 l 1
 885 16 734 -10 602 -10 c 0
619 717 m 0
 341.901345291 717 201 629 201 383 c 0
 201 137 305 49 606 49 c 0
 744 49 891 78 1000 150 c 1
 1000 524 l 1
 979.492917847 599 906.099150142 717 619 717 c 0
EndSplineSet
EndChar

StartChar: h
Encoding: 94 104 73
Width: 1198
Flags: MW
LayerCount: 2
Fore
SplineSet
1051 418 m 2
 1051 72 l 2
 1051 37 1045 0 1013 0 c 0
 974 0 971 37 971 72 c 2
 971 418 l 2
 971 626 920 727 664 727 c 0
 509 727 287 681 239 524 c 1
 239 72 l 2
 239 37 233 0 201 0 c 0
 163 0 159 37 159 72 c 2
 159 1044 l 2
 159 1076 163 1114 201 1114 c 0
 233 1114 239 1079 239 1044 c 2
 239 594 l 1
 283 755 528 786 664 786 c 0
 952 786 1051 695 1051 418 c 2
EndSplineSet
EndChar

StartChar: i
Encoding: 95 105 74
Width: 426
Flags: MW
LayerCount: 2
Fore
SplineSet
159 992 m 0
 159 1023 181 1046 212 1046 c 0
 243 1046 267 1023 267 992 c 0
 267 961 243 941 212 941 c 0
 181 941 159 961 159 992 c 0
252 707 m 2
 252 63 l 2
 252 28 251 0 212 0 c 0
 175 0 172 24 172 63 c 2
 172 705 l 2
 172 738 177 766 214 766 c 0
 247 766 252 737 252 707 c 2
EndSplineSet
EndChar

StartChar: j
Encoding: 96 106 75
Width: 483
Flags: MW
LayerCount: 2
Fore
SplineSet
265 992 m 0
 265 1023 287 1046 318 1046 c 0
 349 1046 373 1023 373 992 c 0
 373 961 349 941 318 941 c 0
 287 941 265 961 265 992 c 0
359 714 m 2
 359 94 l 2
 359 -45 355 -266 66 -266 c 0
 31 -266 0 -266 0 -231 c 0
 0 -196 31 -197 66 -197 c 0
 287 -197 279 -45 279 94 c 2
 279 714 l 2
 279 743 285 766 320 766 c 0
 359 766 359 743 359 714 c 2
EndSplineSet
EndChar

StartChar: k
Encoding: 97 107 76
Width: 999
Flags: MW
LayerCount: 2
Fore
SplineSet
453 461 m 1
 904 59 l 2
 913 50 917 41 917 30 c 0
 917 13 904 0 885 0 c 0
 874 0 863 5 851 16 c 2
 392 430 l 1
 240 345 l 1
 240 44 l 2
 240 13 219 0 200 0 c 0
 183 0 160 13 160 44 c 2
 160 1070 l 2
 160 1097 185 1110 202 1110 c 0
 221 1110 240 1097 240 1070 c 2
 240 410 l 1
 866 774 l 2
 870 776 874 777 879 777 c 0
 896 777 909 761 909 746 c 0
 909 737 903 729 892 722 c 2
 453 461 l 1
EndSplineSet
EndChar

StartChar: l
Encoding: 98 108 77
Width: 399
Flags: MW
LayerCount: 2
Fore
SplineSet
240 1044 m 2
 240 70 l 2
 240 31 234 0 201 0 c 0
 162 0 160 32 160 68 c 2
 160 1042 l 2
 160 1081 163 1114 203 1114 c 0
 236 1114 240 1079 240 1044 c 2
EndSplineSet
EndChar

StartChar: m
Encoding: 99 109 78
Width: 1630
Flags: MW
LayerCount: 2
Fore
SplineSet
1403 52 m 2
 1403 489 l 2
 1403 674 1342 727 1215 727 c 0
 1044 727 937 653 862 532 c 1
 862 52 l 2
 862 5 840 0 824 0 c 0
 805 0 782 1 782 52 c 2
 782 532 l 2
 782 653 728 727 603 727 c 0
 415 727 271 636 239 528 c 1
 239 52 l 2
 239 5 220 0 204 0 c 0
 185 0 159 1 159 52 c 2
 159 717 l 2
 159 760 182 766 200 766 c 0
 223 766 238 760 238 717 c 2
 238 594 l 1
 281 715 427 786 601 786 c 0
 804 786 835 660 848 599 c 1
 895 682 1008 786 1213 786 c 0
 1396 786 1483 696 1483 489 c 2
 1483 52 l 2
 1483 5 1460 0 1444 0 c 0
 1424 0 1403 1 1403 52 c 2
EndSplineSet
EndChar

StartChar: n
Encoding: 100 110 79
Width: 1192
Flags: MW
LayerCount: 2
Back
SplineSet
1045 418 m 6xd8
 1045 72 l 6
 1045 37 1036 0 1004 0 c 4
 965 0 965 37 965 72 c 6
 965 418 l 6
 965 626 916 727 660 727 c 4xd8
 504 727 287 681 239 524 c 5
 239 72 l 6
 239 37 235 0 202 0 c 4
 165 0 159 37 159 72 c 6
 159 720 l 6
 159 742 164 766 201 766 c 4xb8
 234 766 239 745 239 720 c 6
 239 594 l 5
 314 766 524 786 660 786 c 4
 948 786 1045 695 1045 418 c 6xd8
EndSplineSet
Fore
SplineSet
1045 418 m 2
 1045 72 l 2
 1045 37 1036 0 1004 0 c 0
 965 0 965 37 965 72 c 2
 965 418 l 2
 965 626 916 727 660 727 c 0
 504 727 287 681 239 524 c 1
 239 72 l 2
 239 37 235 0 202 0 c 0
 165 0 159 37 159 72 c 2
 159 720 l 2
 159 742 164 766 201 766 c 0
 234 766 239 745 239 720 c 2
 239 610 l 1
 350.790973872 764.88172043 526.03087886 786 663 786 c 0
 948.755844156 786 1045 695 1045 418 c 2
EndSplineSet
EndChar

StartChar: o
Encoding: 101 111 80
Width: 1240
Flags: MW
LayerCount: 2
Fore
SplineSet
620 49 m 0
 983 49 1037 222 1037 385 c 0
 1037 633 912 727 620 727 c 0
 328 727 203 633 203 385 c 0
 203 222 257 49 620 49 c 0
620 -10 m 0
 252 -10 123 141 123 385 c 0
 123 667 279 786 620 786 c 0
 961 786 1117 667 1117 385 c 0
 1117 141 988 -10 620 -10 c 0
EndSplineSet
EndChar

StartChar: p
Encoding: 102 112 81
Width: 1255
Flags: MW
LayerCount: 2
Fore
SplineSet
689 727 m 1
 529 724 287 691 239 524 c 1
 239 140 l 1
 353 97 503 49 689 49 c 0
 945 49 1052 153 1052 396 c 0
 1052 648 890 727 689 727 c 1
689 786 m 0
 929 786 1132 697 1132 396 c 0
 1132 97 972 -10 689 -10 c 0
 473 -10 329 48 239 97 c 1
 237 -267 l 2
 237 -302 237 -337 198 -337 c 0
 159 -337 159 -300 159 -261 c 2
 159 717 l 2
 159 760 178 766 197 766 c 0
 220 766 234 760 234 717 c 2
 234 585 l 1
 282 755 549 786 689 786 c 0
EndSplineSet
EndChar

StartChar: q
Encoding: 103 113 82
Width: 1197
Flags: MW
LayerCount: 2
Fore
SplineSet
566 727 m 1
 365 727 203 648 203 396 c 0
 203 153 310 49 566 49 c 0
 833 49 953 113 1016 164 c 1
 1016 524 l 1
 968 691 726 724 566 727 c 1
566 786 m 0
 706 786 968 755 1016 585 c 1
 1016 714 l 2
 1016 757 1036 766 1059 766 c 0
 1078 766 1096 755 1096 712 c 2
 1096 -269 l 2
 1096 -308 1094 -338 1055 -338 c 0
 1016 -338 1016 -303 1016 -267 c 2
 1016 117 l 1
 965 64 846 -10 566 -10 c 0
 283 -10 123 97 123 396 c 0
 123 697 326 786 566 786 c 0
EndSplineSet
EndChar

StartChar: r
Encoding: 104 114 83
Width: 809
Flags: MW
LayerCount: 2
Fore
SplineSet
748 762 m 0
 762 758 769 745 769 732 c 0
 769 715 758 697 735 697 c 0
 729 697 729 698 723 699 c 0
 671 714 626 722 571 722 c 0
 414 722 281 662 238 530 c 1
 238 70 l 2
 238 35 232 0 199 0 c 0
 161 0 158 35 158 70 c 2
 158 710 l 2
 158 740 165 766 203 766 c 0
 232 766 238 742 238 710 c 2
 238 594 l 1
 281 758 467 786 571 786 c 0
 673 786 711 772 748 762 c 0
EndSplineSet
EndChar

StartChar: s
Encoding: 105 115 84
Width: 1182
Flags: MW
LayerCount: 2
Fore
SplineSet
992 209 m 0
 992 494 119 201 119 557 c 0
 119 740 338 786 550 786 c 0
 721 786 877 759 1004 692 c 0
 1017 685 1021 675 1022 664 c 1
 1022 647 1009 631 996 631 c 0
 992 631 989 632 988 633 c 0
 875 690 729 727 554 727 c 0
 373 727 199 687 199 557 c 0
 199 288 1072 574 1072 209 c 0
 1072 46 853 -10 617 -10 c 0
 474 -10 270 -4 155 87 c 0
 146 94 141 102 141 113 c 0
 141 130 152 145 167 145 c 0
 172 145 176 144 179 141 c 0
 291 64 439 49 607 49 c 0
 807 49 992 85 992 209 c 0
EndSplineSet
EndChar

StartChar: t
Encoding: 106 116 85
Width: 714
Flags: MW
LayerCount: 2
Fore
SplineSet
265 751 m 1
 597 751 l 2
 617 751 627 739 627 727 c 0
 627 715 617 703 597 703 c 2
 265 703 l 1
 265 279 l 2
 265 84 350 49 454 49 c 0
 518 49 574 72 654 115 c 0
 662 119 670 121 677 121 c 0
 694 121 705 110 705 95 c 0
 705 82 698 71 683 63 c 0
 571 2 518 -10 440 -10 c 0
 296 -10 185 63 185 279 c 2
 185 703 l 1
 97 703 l 2
 78 703 69 715 69 727 c 0
 69 739 78 751 97 751 c 2
 185 751 l 1
 185 1000 l 2
 185 1043 206 1049 225 1049 c 0
 248 1049 265 1043 265 1000 c 2
 265 751 l 1
EndSplineSet
EndChar

StartChar: u
Encoding: 107 117 86
Width: 1178
Flags: MW
LayerCount: 2
Fore
SplineSet
938 70 m 2
 939 141 l 1
 882 75 768 -10 545 -10 c 0
 260 -10 147 96 147 348 c 2
 147 694 l 2
 147 729 152 766 187 766 c 0
 226 766 227 729 227 694 c 2
 227 348 l 2
 227 125 290 49 545 49 c 0
 731 49 863 120 939 178 c 1
 939 694 l 2
 939 729 941 766 976 766 c 0
 1016 766 1019 729 1019 694 c 2
 1019 70 l 2
 1019 35 1013 0 981 0 c 0
 944 0 938 29 938 61 c 0
 938 64 938 67 938 70 c 2
EndSplineSet
EndChar

StartChar: v
Encoding: 108 118 87
Width: 1024
Flags: MW
LayerCount: 2
Fore
SplineSet
512 -10 m 0
 484 -10 469 14 461 29 c 2
 71 695 l 2
 63 708 61 720 61 730 c 0
 61 752 76 766 95 766 c 0
 110 766 127 756 139 735 c 2
 512 73 l 1
 885 735 l 2
 897 756 914 766 929 766 c 0
 947 766 963 752 963 730 c 0
 963 720 960 708 953 695 c 2
 563 29 l 2
 554 14 539 -10 512 -10 c 0
EndSplineSet
EndChar

StartChar: w
Encoding: 109 119 88
Width: 1356
Flags: MW
LayerCount: 2
Fore
SplineSet
740 712 m 2
 952 90 l 1
 1164 726 l 1
 1175 755 1192 766 1209 766 c 0
 1230 766 1250 748 1250 720 c 0
 1250 713 1249 705 1246 698 c 2
 1010 49 l 2
 997 14 975 -5 952 -5 c 0
 930 -5 910 10 897 49 c 2
 678 674 l 1
 459 49 l 2
 445 10 425 -5 404 -5 c 0
 380 -5 359 14 346 49 c 2
 110 698 l 2
 107 705 106 713 106 720 c 0
 106 748 126 766 147 766 c 0
 164 766 181 755 192 726 c 1
 404 90 l 1
 616 712 l 2
 628 749 652 766 677 766 c 0
 702 766 728 748 740 712 c 2
EndSplineSet
EndChar

StartChar: x
Encoding: 110 120 89
Width: 1139
Flags: MW
LayerCount: 2
Fore
SplineSet
624 387 m 1
 971 70 l 2
 986 56 993 40 993 27 c 0
 993 10 981 -3 963 -3 c 0
 951 -3 936 3 921 17 c 2
 570 337 l 1
 219 17 l 2
 204 3 189 -3 177 -3 c 0
 159 -3 146 10 146 28 c 0
 146 41 153 55 169 70 c 2
 516 387 l 1
 165 698 l 2
 151 710 145 723 145 735 c 0
 145 752 159 766 178 766 c 0
 190 766 205 761 219 748 c 2
 570 436 l 1
 921 748 l 2
 936 761 948 766 961 766 c 0
 980 766 994 753 994 735 c 0
 994 723 988 710 975 698 c 2
 624 387 l 1
EndSplineSet
EndChar

StartChar: y
Encoding: 111 121 90
Width: 1170
Flags: MW
LayerCount: 2
Fore
SplineSet
587 -275 m 0
 862 -275 946 -166 946 170 c 1
 902 7 672 -10 536 -10 c 0
 249 -10 147 86 147 387 c 2
 147 694 l 2
 147 729 150 766 186 766 c 0
 225 766 227 729 227 694 c 2
 227 387 l 2
 227 126 282 49 536 49 c 0
 689 49 901 84 946 240 c 1
 946 694 l 2
 946 729 952 766 984 766 c 0
 1023 766 1026 729 1026 694 c 2
 1026 203 l 2
 1026 -208 901 -334 587 -334 c 0
 364 -334 290 -281 238 -240 c 0
 232 -235 230 -228 230 -221 c 0
 230 -202 240 -188 261 -188 c 0
 266 -188 272 -190 278 -194 c 0
 329 -232 408 -275 587 -275 c 0
EndSplineSet
EndChar

StartChar: z
Encoding: 112 122 91
Width: 1032
Flags: MW
LayerCount: 2
Fore
SplineSet
867 0 m 2
 151 0 l 2
 128 0 109 20 109 45 c 0
 109 61 117 78 135 94 c 2
 820 699 l 1
 173 699 l 2
 134 699 100 697 100 730 c 0
 100 769 132 766 171 766 c 2
 875 766 l 2
 907 766 925 747 925 723 c 0
 925 708 917 691 901 677 c 2
 211 67 l 1
 865 67 l 2
 904 67 938 70 938 31 c 0
 938 -2 901 0 867 0 c 2
EndSplineSet
EndChar

StartChar: braceleft
Encoding: 113 123 92
Width: 605
Flags: MW
LayerCount: 2
Fore
SplineSet
42 782 m 0
 481 782 41 1477 566 1477 c 0
 589 1477 599 1460 599 1444 c 0
 599 1427 589 1413 566 1413 c 2
 549 1413 l 2
 190 1413 486 777 151 750 c 1
 486 723 189 86 549 86 c 0
 556 86 561 87 568 87 c 0
 589 87 599 71 599 56 c 0
 599 39 589 23 566 23 c 0
 41 23 481 718 42 718 c 0
 19 718 9 734 9 750 c 0
 9 766 19 782 42 782 c 0
EndSplineSet
EndChar

StartChar: bar
Encoding: 114 124 93
Width: 304
Flags: MW
LayerCount: 2
Fore
SplineSet
188 1227 m 2
 188 -63 l 2
 188 -102 188 -133 153 -133 c 0
 114 -133 116 -101 116 -66 c 2
 116 1225 l 2
 116 1264 114 1296 153 1296 c 0
 188 1296 188 1262 188 1227 c 2
EndSplineSet
EndChar

StartChar: braceright
Encoding: 115 125 94
Width: 605
Flags: MW
LayerCount: 2
Fore
SplineSet
564 782 m 0
 587 782 597 766 597 750 c 0
 597 734 587 718 564 718 c 0
 125 718 565 23 40 23 c 0
 17 23 7 39 7 56 c 0
 7 71 17 87 38 87 c 0
 45 87 50 86 57 86 c 0
 417 86 120 723 455 750 c 1
 120 777 416 1413 57 1413 c 2
 40 1413 l 2
 17 1413 7 1427 7 1444 c 0
 7 1460 17 1477 40 1477 c 0
 565 1477 125 782 564 782 c 0
EndSplineSet
EndChar

StartChar: asciitilde
Encoding: 116 126 95
Width: 969
Flags: MW
LayerCount: 2
Fore
SplineSet
668 475 m 0
 744 475 814 508 814 647 c 1
 887 647 l 1
 887 438 742 403 668 403 c 0
 488 403 447 612 306 612 c 0
 232 612 160 580 160 440 c 1
 89 440 l 1
 89 647 231 684 306 684 c 0
 486 684 527 475 668 475 c 0
EndSplineSet
EndChar

StartChar: exclamdown
Encoding: 118 161 96
Width: 328
Flags: MW
LayerCount: 2
Fore
SplineSet
108 1054 m 0
 108 1087 131 1110 166 1110 c 0
 199 1110 226 1087 226 1054 c 0
 226 1019 199 995 166 995 c 0
 131 995 108 1019 108 1054 c 0
108 35 m 0
 108 36 108 37 140 850 c 0
 141 869 152 879 164 879 c 0
 177 879 188 869 189 850 c 2
 221 37 l 1
 221 5 193 -10 164 -10 c 0
 136 -10 108 2 108 35 c 0
EndSplineSet
EndChar

StartChar: cent
Encoding: 119 162 97
Width: 1132
Flags: MW
LayerCount: 2
Fore
SplineSet
200 385 m 0
 200 152 328 58 586 49 c 1
 586 726 l 1
 311 717 200 617 200 385 c 0
658 -9 m 1
 658 -63 l 2
 658 -102 658 -133 623 -133 c 0
 584 -133 586 -101 586 -66 c 2
 586 -9 l 1
 306 -1 120 88 120 385 c 0
 120 680 289 777 586 785 c 1
 586 879 l 2
 586 918 584 950 623 950 c 0
 658 950 658 916 658 881 c 2
 658 785 l 1
 767 782 886 761 992 706 c 0
 1007 698 1013 686 1013 675 c 0
 1013 660 1002 649 985 649 c 0
 978 649 971 651 964 654 c 0
 905 683 776 721 658 726 c 1
 658 49 l 1
 777 55 905 92 964 122 c 0
 971 125 978 127 985 127 c 0
 1002 127 1013 116 1013 101 c 0
 1013 90 1007 78 992 70 c 0
 886 15 767 -6 658 -9 c 1
EndSplineSet
EndChar

StartChar: sterling
Encoding: 120 163 98
Width: 987
Flags: MW
LayerCount: 2
Fore
SplineSet
376 106 m 1
 331 120 286 129 232 129 c 0
 162 129 135 110 135 91 c 0
 135 72 160 54 229 54 c 0
 305 54 352 72 376 106 c 1
444 83 m 1
 401 17 313 -10 232 -10 c 0
 114 -10 61 39 61 90 c 0
 61 141 114 192 232 192 c 0
 294 192 347 183 396 170 c 1
 396 173 396 176 396 179 c 0
 396 192 393 236 344 521 c 1
 134 521 l 2
 103 521 90 539 90 556 c 0
 90 575 103 592 134 592 c 2
 334 592 l 1
 315 753 l 2
 312 775 311 797 311 817 c 0
 311 1043 455 1135 624 1135 c 0
 699 1135 790 1124 878 1060 c 0
 890 1051 895 1037 896 1025 c 1
 896 1008 880 998 863 998 c 0
 849 998 848 1001 835 1010 c 0
 756 1060 675 1070 621 1070 c 0
 499 1070 389 999 389 816 c 0
 389 799 390 782 392 763 c 2
 411 592 l 1
 703 592 l 2
 742 592 773 592 773 557 c 0
 773 522 744 521 703 521 c 2
 421 521 l 1
 481 172 472 190 472 183 c 0
 472 171 471 159 469 148 c 1
 574 113 678 71 842 71 c 0
 885 71 912 67 912 36 c 0
 912 0 884 0 844 0 c 0
 654 0 544 46 444 83 c 1
EndSplineSet
EndChar

StartChar: fraction
Encoding: 397 8260 99
Width: 460
Flags: MW
LayerCount: 2
Fore
SplineSet
473 1446 m 2
 61 352 l 1
 46 321 40 295 16 295 c 0
 -14 295 -21 316 -21 331 c 1
 -22 345 -15 357 -9 373 c 2
 401 1466 l 1
 410 1497 419 1524 450 1524 c 0
 478 1524 483 1506 483 1489 c 0
 483 1475 478 1460 473 1446 c 2
EndSplineSet
EndChar

StartChar: yen
Encoding: 122 165 100
Width: 1165
Flags: MW
LayerCount: 2
Fore
SplineSet
908 467 m 0
 908 452 900 438 883 438 c 2
 626 438 l 1
 626 69 l 2
 626 30 619 0 586 0 c 0
 547 0 541 32 541 67 c 2
 541 438 l 1
 278 438 l 2
 261 438 254 452 254 467 c 0
 254 482 261 496 278 496 c 2
 522 496 l 1
 454 577 l 1
 280 577 l 2
 263 577 256 591 256 606 c 0
 256 621 263 635 280 635 c 2
 405 635 l 1
 67 1040 l 2
 54 1055 50 1066 50 1080 c 0
 50 1100 64 1114 83 1114 c 0
 96 1114 112 1106 126 1089 c 2
 583 535 l 1
 1040 1089 l 2
 1054 1106 1069 1113 1082 1113 c 0
 1103 1113 1115 1099 1115 1077 c 0
 1115 1066 1109 1053 1098 1040 c 2
 761 635 l 1
 885 635 l 2
 902 635 910 621 910 606 c 0
 910 591 902 577 885 577 c 2
 713 577 l 1
 646 496 l 1
 883 496 l 2
 900 496 908 482 908 467 c 0
EndSplineSet
EndChar

StartChar: section
Encoding: 124 167 101
Width: 1108
Flags: MW
LayerCount: 2
Fore
SplineSet
954 574 m 0
 954 714 738 716 521 721 c 1
 339 721 161 687 161 557 c 0
 161 421 379 427 597 419 c 1
 785 422 954 457 954 574 c 0
954 209 m 0
 954 494 81 201 81 557 c 0
 81 659 151 716 250 748 c 1
 150 772 81 821 81 922 c 0
 81 1105 300 1151 512 1151 c 0
 683 1151 839 1124 966 1057 c 0
 979 1050 983 1040 984 1029 c 1
 984 1012 971 996 958 996 c 0
 954 996 951 997 950 998 c 0
 837 1055 691 1092 516 1092 c 0
 335 1092 161 1052 161 922 c 0
 161 653 1034 939 1034 574 c 0
 1034 478 961 424 853 392 c 1
 959 368 1034 315 1034 209 c 0
 1034 46 815 -10 579 -10 c 0
 436 -10 232 -4 117 87 c 0
 108 94 103 102 103 113 c 0
 103 130 114 145 129 145 c 0
 134 145 138 144 141 141 c 0
 253 64 401 49 569 49 c 0
 769 49 954 85 954 209 c 0
EndSplineSet
EndChar

StartChar: currency
Encoding: 121 164 102
Width: 958
Flags: MW
LayerCount: 2
Fore
SplineSet
781 748 m 0
 781 907 648 1041 480 1041 c 0
 312 1041 178 913 178 748 c 0
 178 588 315 454 480 454 c 0
 647 454 781 588 781 748 c 0
786 494 m 0
 818 470 866 424 866 410 c 1
 860 395 l 1
 848 385 l 2
 844 381 840 379 835 379 c 1
 817 385 l 1
 727 469 l 1
 659 412 570 381 479 381 c 0
 388 381 299 412 231 469 c 1
 215 453 l 2
 188 426 136 379 125 379 c 1
 108 385 l 1
 97 394 92 402 92 410 c 1
 107 433 119 442 135 457 c 2
 188 508 l 1
 127 579 96 659 96 748 c 0
 96 836 124 922 188 987 c 1
 168 1000 92 1067 92 1087 c 1
 98 1102 l 1
 105 1109 110 1118 125 1118 c 1
 141 1112 l 1
 231 1028 l 1
 299 1085 388 1116 479 1116 c 0
 570 1116 659 1085 727 1028 c 1
 741 1042 813 1118 835 1118 c 1
 837 1116 866 1106 866 1087 c 1
 860 1071 l 1
 770 987 l 1
 834 922 862 836 862 748 c 0
 862 673 837 590 788 530 c 2
 770 508 l 1
 777 505 778 501 786 494 c 0
EndSplineSet
EndChar

StartChar: quotesingle
Encoding: 29 39 103
Width: 246
Flags: MW
LayerCount: 2
Fore
SplineSet
97 810 m 1
 93.0403708538 857.428256343 82.4816451277 1086.03071195 74 1099 c 1
 74 1123 96 1135 123 1135 c 0
 150 1135 171 1123 171 1099 c 1
 164.167330095 1093.77608042 152.226302761 852.157643484 149 810 c 0
 147 795 135 789 123 789 c 0
 111 789 97 795 97 810 c 1
EndSplineSet
EndChar

StartChar: quotedblleft
Encoding: 387 8220 104
Width: 512
Flags: MW
LayerCount: 2
Fore
SplineSet
443 1131 m 1
 443 1080 l 1
 433 1080 l 2
 398 1080 389 1069 389 1054 c 0
 389 1030 417 992 424 976 c 0
 429 964 429 952 430 944 c 1
 430 901 396 874 357 874 c 0
 317 874 274 905 274 985 c 0
 274 1071 324 1134 408 1134 c 0
 419 1134 431 1133 443 1131 c 1
241 1131 m 1
 241 1080 l 1
 231 1080 l 2
 196 1080 187 1069 187 1054 c 0
 187 1030 215 992 222 976 c 0
 227 964 227 952 228 944 c 1
 228 901 194 874 155 874 c 0
 115 874 72 905 72 985 c 0
 72 1071 122 1134 206 1134 c 0
 217 1134 229 1133 241 1131 c 1
EndSplineSet
EndChar

StartChar: guillemotleft
Encoding: 128 171 105
Width: 646
Flags: MW
LayerCount: 2
Fore
SplineSet
57 367 m 2
 298 619 l 2
 306 627 315 631 325 631 c 0
 345 631 363 615 363 596 c 0
 363 587 359 578 352 571 c 2
 114 334 l 1
 352 97 l 2
 360 89 364 81 364 72 c 0
 364 53 345 37 325 37 c 0
 315 37 306 41 298 49 c 2
 57 301 l 2
 46 312 40 324 40 335 c 1
 41 343 45 355 57 367 c 2
256 367 m 2
 497 619 l 2
 505 627 514 631 524 631 c 0
 544 631 562 615 562 596 c 0
 562 587 558 578 551 571 c 2
 313 334 l 1
 551 97 l 2
 559 89 563 81 563 72 c 0
 563 53 544 37 524 37 c 0
 514 37 505 41 497 49 c 2
 256 301 l 2
 245 312 239 324 239 335 c 1
 240 343 244 355 256 367 c 2
EndSplineSet
EndChar

StartChar: guilsinglleft
Encoding: 395 8249 106
Width: 448
Flags: MW
LayerCount: 2
Fore
SplineSet
59 367 m 2
 300 619 l 2
 308 627 317 631 327 631 c 0
 347 631 365 615 365 596 c 0
 365 587 361 578 354 571 c 2
 116 334 l 1
 354 97 l 2
 362 89 366 81 366 72 c 0
 366 53 347 37 327 37 c 0
 317 37 308 41 300 49 c 2
 59 301 l 2
 48 312 42 324 42 335 c 0
 42 343 47 355 59 367 c 2
EndSplineSet
EndChar

StartChar: guilsinglright
Encoding: 396 8250 107
Width: 448
Flags: MW
LayerCount: 2
Fore
SplineSet
148 619 m 2
 389 367 l 2
 401 355 405 343 406 335 c 1
 406 324 400 312 389 301 c 2
 148 49 l 2
 140 41 131 37 121 37 c 0
 101 37 82 53 82 72 c 0
 82 81 86 89 94 97 c 2
 332 334 l 1
 94 571 l 2
 87 578 83 587 83 596 c 0
 83 615 101 631 121 631 c 0
 131 631 140 627 148 619 c 2
EndSplineSet
EndChar

StartChar: endash
Encoding: 382 8211 108
Width: 677
Flags: MW
LayerCount: 2
Fore
SplineSet
123 588 m 2
 482 588 l 2
 501 588 509 567 509 550 c 0
 509 534 501 514 482 514 c 2
 123 514 l 2
 104 514 96 534 96 550 c 0
 96 567 104 588 123 588 c 2
EndSplineSet
EndChar

StartChar: paragraph
Encoding: 139 182 109
Width: 816
Flags: MW
LayerCount: 2
Fore
SplineSet
404 76 m 2
 404 542 l 1
 177 542 57 683 57 825 c 0
 57 966 175 1106 423 1111 c 1
 654 1114 l 2
 681 1114 688 1110 688 1077 c 2
 688 76 l 2
 688 35 681 0 642 0 c 0
 610 0 603 37 603 76 c 2
 603 1021 l 1
 489 1021 l 1
 489 76 l 2
 489 35 482 0 443 0 c 0
 411 0 404 37 404 76 c 2
EndSplineSet
EndChar

StartChar: bullet
Encoding: 392 8226 110
Width: 851
Flags: MW
LayerCount: 2
Fore
SplineSet
777 403 m 0
 777 216 617 68 425 68 c 0
 232 68 74 219 74 403 c 0
 74 590 230 741 425 741 c 0
 617 741 777 590 777 403 c 0
EndSplineSet
EndChar

StartChar: quotesinglbase
Encoding: 386 8218 111
Width: 289
Flags: MW
LayerCount: 2
Fore
SplineSet
119 14 m 1
 107 108 l 2
 101 155 97 202 96 203 c 1
 96 227 118 239 145 239 c 0
 172 239 193 227 193 203 c 1
 191 202 187 155 182 108 c 2
 171 14 l 2
 169 -1 157 -7 145 -7 c 0
 133 -7 119 -1 119 14 c 1
EndSplineSet
EndChar

StartChar: quotedblbase
Encoding: 389 8222 112
Width: 445
Flags: MW
LayerCount: 2
Fore
SplineSet
275 2 m 1
 263 96 l 2
 257 143 253 190 252 191 c 1
 252 215 274 227 301 227 c 0
 328 227 349 215 349 191 c 1
 347 190 343 143 338 96 c 2
 327 2 l 2
 325 -13 313 -19 301 -19 c 0
 289 -19 275 -13 275 2 c 1
119 2 m 1
 107 96 l 2
 101 143 97 190 96 191 c 1
 96 215 118 227 145 227 c 0
 172 227 193 215 193 191 c 1
 191 190 187 143 182 96 c 2
 171 2 l 2
 169 -13 157 -19 145 -19 c 0
 133 -19 119 -13 119 2 c 1
EndSplineSet
EndChar

StartChar: quotedblright
Encoding: 388 8221 113
Width: 524
Flags: MW
LayerCount: 2
Fore
SplineSet
285 877 m 1
 285 928 l 1
 295 928 l 2
 330 928 339 939 339 954 c 0
 339 978 311 1016 304 1032 c 0
 299 1044 299 1056 298 1064 c 1
 298 1107 332 1134 371 1134 c 0
 411 1134 454 1103 454 1023 c 0
 454 937 404 874 320 874 c 0
 309 874 297 875 285 877 c 1
77 877 m 1
 77 928 l 1
 87 928 l 2
 122 928 131 939 131 954 c 0
 131 978 103 1016 96 1032 c 0
 91 1044 91 1056 90 1064 c 1
 90 1107 124 1134 163 1134 c 0
 203 1134 246 1103 246 1023 c 0
 246 937 196 874 112 874 c 0
 101 874 89 875 77 877 c 1
EndSplineSet
EndChar

StartChar: guillemotright
Encoding: 144 187 114
Width: 647
Flags: MW
LayerCount: 2
Fore
SplineSet
347 619 m 2
 588 367 l 2
 600 355 604 343 605 335 c 1
 605 324 599 312 588 301 c 2
 347 49 l 2
 339 41 330 37 320 37 c 0
 300 37 281 53 281 72 c 0
 281 81 285 89 293 97 c 2
 531 334 l 1
 293 571 l 2
 286 578 282 587 282 596 c 0
 282 615 300 631 320 631 c 0
 330 631 339 627 347 619 c 2
148 619 m 2
 389 367 l 2
 401 355 405 343 406 335 c 1
 406 324 400 312 389 301 c 2
 148 49 l 2
 140 41 131 37 121 37 c 0
 101 37 82 53 82 72 c 0
 82 81 86 89 94 97 c 2
 332 334 l 1
 94 571 l 2
 87 578 83 587 83 596 c 0
 83 615 101 631 121 631 c 0
 131 631 140 627 148 619 c 2
EndSplineSet
EndChar

StartChar: questiondown
Encoding: 148 191 115
Width: 888
Flags: MW
LayerCount: 2
Fore
SplineSet
684 1079 m 0
 684 1044 661 1020 626 1020 c 0
 593 1020 566 1044 566 1079 c 0
 566 1112 593 1135 626 1135 c 0
 661 1135 684 1112 684 1079 c 0
592 645 m 1
 592 861 l 2
 592 900 592 931 625 931 c 0
 664 931 664 899 664 863 c 2
 664 613 l 2
 664 597 653 581 629 581 c 0
 196 581 125 456 125 324 c 0
 125 168 197 59 473 59 c 0
 590 59 690 86 765 109 c 0
 774 112 782 114 791 114 c 0
 814 114 827 103 827 88 c 0
 827 37 622 -10 473 -10 c 0
 158 -10 59 133 59 318 c 0
 59 471 104 637 592 645 c 1
EndSplineSet
EndChar

StartChar: grave
Encoding: 86 96 116
Width: 376
Flags: MW
LayerCount: 2
Fore
SplineSet
101 1289 m 2
 353 1013 l 2
 358 1008 361 1002 361 995 c 0
 361 980 349 969 334 969 c 0
 328 969 323 971 319 974 c 2
 27 1211 l 2
 17 1219 12 1228 12 1239 c 0
 12 1268 47 1300 76 1300 c 0
 85 1300 94 1296 101 1289 c 2
EndSplineSet
EndChar

StartChar: acute
Encoding: 137 180 117
Width: 376
Flags: MW
LayerCount: 2
Fore
SplineSet
23 1001 m 2
 275 1277 l 2
 282 1284 291 1288 300 1288 c 0
 329 1288 364 1256 364 1227 c 0
 364 1216 359 1207 349 1199 c 2
 57 962 l 2
 53 959 48 957 42 957 c 0
 27 957 15 968 15 983 c 0
 15 990 18 996 23 1001 c 2
EndSplineSet
EndChar

StartChar: circumflex
Encoding: 368 710 118
Width: 482
Flags: MW
LayerCount: 2
Fore
SplineSet
241 1110 m 1
 111 892 l 1
 35 892 l 1
 188 1127 l 2
 204 1152 222 1165 241 1165 c 0
 257 1165 277 1152 294 1127 c 2
 447 892 l 1
 371 892 l 1
 241 1110 l 1
EndSplineSet
EndChar

StartChar: tilde
Encoding: 374 732 119
Width: 796
Flags: MW
LayerCount: 2
Fore
SplineSet
604 984 m 0
 633 984 639 1007 639 1052 c 1
 702 1052 l 1
 705 1034 707 1016 707 997 c 0
 707 949 671 916 608 916 c 0
 498 916 413 986 326 986 c 0
 298 986 294 966 294 948 c 0
 294 938 295 929 295 921 c 1
 232 921 l 1
 228 938 226 957 226 976 c 0
 226 1023 263 1057 326 1057 c 0
 433 1057 524 984 604 984 c 0
EndSplineSet
EndChar

StartChar: macron
Encoding: 132 175 120
Width: 677
Flags: MW
LayerCount: 2
Fore
SplineSet
162 981 m 2
 514 981 l 2
 533 981 541 964 541 952 c 0
 541 941 533 926 514 926 c 2
 162 926 l 2
 143 926 135 941 135 952 c 0
 135 964 143 981 162 981 c 2
EndSplineSet
EndChar

StartChar: breve
Encoding: 370 728 121
Width: 654
Flags: MW
LayerCount: 2
Fore
SplineSet
507 1175 m 1
 544 1175 l 1
 544 1095 520 989 359 989 c 0
 193 989 174 1102 174 1175 c 1
 211 1175 l 1
 213 1117 243 1041 359 1041 c 0
 472 1041 502 1116 507 1175 c 1
EndSplineSet
EndChar

StartChar: dotaccent
Encoding: 371 729 122
Width: 245
Flags: MW
LayerCount: 2
Fore
SplineSet
104 1055 m 0
 104 1090 127 1114 162 1114 c 0
 195 1114 222 1090 222 1055 c 0
 222 1022 195 999 162 999 c 0
 127 999 104 1022 104 1055 c 0
EndSplineSet
EndChar

StartChar: dieresis
Encoding: 125 168 123
Width: 723
Flags: MW
LayerCount: 2
Fore
SplineSet
526 996 m 0
 526 1031 549 1055 584 1055 c 0
 617 1055 644 1031 644 996 c 0
 644 963 617 940 584 940 c 0
 549 940 526 963 526 996 c 0
87 996 m 0
 87 1031 110 1055 145 1055 c 0
 178 1055 205 1031 205 996 c 0
 205 963 178 940 145 940 c 0
 110 940 87 963 87 996 c 0
EndSplineSet
EndChar

StartChar: ring
Encoding: 372 730 124
Width: 367
Flags: MW
LayerCount: 2
Fore
SplineSet
117 997 m 0
 117 962 147 932 184 932 c 0
 221 932 252 962 252 997 c 0
 252 1033 221 1061 184 1061 c 0
 147 1061 117 1033 117 997 c 0
301 997 m 0
 301 933 248 885 184 885 c 0
 121 885 66 933 66 997 c 0
 66 1061 117 1110 184 1110 c 0
 248 1110 301 1061 301 997 c 0
EndSplineSet
EndChar

StartChar: cedilla
Encoding: 141 184 125
Width: 266
Flags: MW
LayerCount: 2
Fore
SplineSet
21 -264 m 2
 210 10 l 2
 219 23 227 29 236 29 c 0
 247 29 254 19 254 7 c 0
 254 2 253 -3 250 -8 c 2
 84 -298 l 2
 73 -317 60 -324 45 -324 c 0
 26 -324 11 -310 11 -291 c 0
 11 -282 14 -273 21 -264 c 2
EndSplineSet
EndChar

StartChar: hungarumlaut
Encoding: 375 733 126
Width: 358
Flags: MW
LayerCount: 2
Fore
SplineSet
499 1005 m 2
 763 1271 l 2
 770 1278 779 1282 788 1282 c 0
 811.5625 1282 840 1255.24590164 840 1231 c 0
 840 1220 835 1211 825 1203 c 2
 533 966 l 2
 529 963 524 961 518 961 c 0
 503 961 491 972 491 987 c 0
 491 994 494.018554688 999.981445312 499 1005 c 2
271 1005 m 2
 535 1271 l 2
 542 1278 551 1282 560 1282 c 0
 583.5625 1282 612 1255.24590164 612 1231 c 0
 612 1220 607 1211 597 1203 c 2
 305 966 l 2
 301 963 296 961 290 961 c 0
 275 961 263 972 263 987 c 0
 263 994 266.018554688 999.981445312 271 1005 c 2
EndSplineSet
EndChar

StartChar: ogonek
Encoding: 373 731 127
Width: 293
Flags: MW
LayerCount: 2
Fore
SplineSet
175 6 m 1
 205 6 l 1
 158 -49 135 -108 135 -151 c 0
 135 -206 165 -223 186 -223 c 0
 213 -223 240 -204 257 -193 c 1
 267 -202 l 1
 244 -249 192 -279 141 -279 c 0
 96 -279 46 -251 46 -182 c 0
 46 -118 100 -55 175 6 c 1
EndSplineSet
EndChar

StartChar: caron
Encoding: 369 711 128
Width: 478
Flags: MW
LayerCount: 2
Fore
SplineSet
149 1248 m 1
 279 1030 l 1
 409 1248 l 1
 485 1248 l 1
 332 1013 l 2
 315 988 295 975 279 975 c 0
 260 975 242 988 226 1013 c 2
 73 1248 l 1
 149 1248 l 1
EndSplineSet
EndChar

StartChar: emdash
Encoding: 383 8212 129
Width: 1435
Flags: MW
LayerCount: 2
Fore
SplineSet
1350 228 m 0
 1350 205 1339 184 1312 184 c 2
 122 184 l 2
 95 184 85 205 85 228 c 0
 85 251 95 272 122 272 c 2
 1312 272 l 2
 1339 272 1350 251 1350 228 c 0
EndSplineSet
EndChar

StartChar: AE
Encoding: 155 198 130
Width: 1446
Flags: MW
LayerCount: 2
Fore
SplineSet
290 397 m 1
 627 397 l 1
 627 1014 l 1
 290 397 l 1
1352 35 m 0
 1352 -4 1317 0 1278 0 c 2
 666 0 l 2
 627 0 627 0 627 35 c 2
 627 348 l 1
 269 348 l 1
 206 225 89 -18 46 -18 c 0
 21 -18 9 1 9 12 c 0
 9 29 19 44 30 63 c 2
 578 1065 l 1
 593 1090 603 1111 619 1114 c 1
 1276 1114 l 2
 1315 1114 1350 1118 1350 1079 c 0
 1350 1046 1315 1048 1276 1048 c 2
 712 1048 l 1
 712 601 l 1
 1249 601 l 2
 1287 601 1323 604 1323 572 c 0
 1323 543 1304 539 1278 539 c 0
 1269 539 1259 540 1249 540 c 2
 712 540 l 1
 712 66 l 1
 1278 66 l 2
 1317 66 1352 68 1352 35 c 0
EndSplineSet
EndChar

StartChar: ordfeminine
Encoding: 127 170 131
Width: 1191
Flags: MW
LayerCount: 2
Fore
SplineSet
639 1063 m 0
 392 1063 295 1035 227 1012 c 0
 224 1011 222 1010 219 1010 c 0
 203 1010 187 1030 187 1048 c 0
 187 1056 191 1063 199 1067 c 0
 221 1078 351 1122 640 1122 c 0
 844 1122 1044 1059 1044 694 c 2
 1044 406 l 2
 1044 375 1040 336 1003 336 c 0
 972 336 963 367 963 410 c 2
 963 479 l 1
 910 412 799 326 552 326 c 0
 319 326 134 392 134 560 c 0
 134 755 308 813 532 813 c 0
 702 813 878 790 963 745 c 1
 963 1016 808 1063 639 1063 c 0
214 560 m 0
 214 433 352 385 544 385 c 0
 778 385 903 459 963 514 c 1
 963 715 l 1
 833 733 682 754 540 754 c 0
 335 754 214 712 214 560 c 0
302 259 m 2
 843 259 l 2
 855 259 865 248 865 235 c 0
 865 222 855 211 843 211 c 2
 302 211 l 2
 290 211 280 222 280 235 c 0
 280 248 290 259 302 259 c 2
EndSplineSet
EndChar

StartChar: Lslash
Encoding: 276 321 132
Width: 1109
Flags: MW
LayerCount: 2
Fore
SplineSet
-6 500 m 1
 -27 563 l 1
 207 657 l 1
 207 1044 l 2
 207 1085 207 1114 246 1114 c 0
 278 1114 278 1083 278 1044 c 2
 278 688 l 1
 641 836 l 1
 661 772 l 1
 278 612 l 1
 278 70 l 1
 1006 70 l 2
 1045 70 1077 70 1077 35 c 0
 1077 0 1045 0 1006 0 c 2
 246 0 l 2
 207 0 207 -2 207 70 c 2
 207 584 l 1
 -6 500 l 1
EndSplineSet
EndChar

StartChar: Oslash
Encoding: 173 216 133
Width: 1715
Flags: MW
LayerCount: 2
Fore
SplineSet
1592 557 m 0
 1592 168 1364 -21 857 -21 c 0
 795 -21 738 -19 684 -13 c 1
 650 -102 l 2
 638 -134 629 -159 605 -159 c 0
 572 -159 568 -135 568 -120 c 0
 568 -108 574 -96 580 -81 c 2
 610 -2 l 1
 276 54 123 238 123 557 c 0
 123 946 350 1135 857 1135 c 0
 920 1135 979 1132 1034 1126 c 1
 1070 1222 l 2
 1081 1252 1088 1280 1119 1280 c 0
 1147 1280 1152 1262 1152 1245 c 0
 1152 1231 1147 1216 1142 1202 c 2
 1109 1116 l 1
 1440 1059 1592 874 1592 557 c 0
633 61 m 1
 1010 1062 l 1
 962 1067 911 1069 857 1069 c 0
 420 1069 208 929 208 557 c 0
 208 255 347 107 633 61 c 1
708 51 m 1
 754 47 804 45 857 45 c 0
 1294 45 1507 185 1507 557 c 0
 1507 857 1369 1007 1086 1053 c 1
 708 51 l 1
EndSplineSet
EndChar

StartChar: OE
Encoding: 290 338 134
Width: 2379
Flags: MW
LayerCount: 2
Fore
SplineSet
1250 1008 m 1
 1149 1051 1019 1069 857 1069 c 0
 420 1069 208 929 208 557 c 0
 208 185 420 45 857 45 c 0
 1020 45 1149 64 1250 107 c 1
 1250 1008 l 1
2276 35 m 0
 2276 2.63829787234 2251.90086012 -0.11588954278 2221.41434942 -0.11588954278 c 0
 2215.1607062 -0.11588954278 2208.63829787 0 2202 0 c 2
 1289 0 l 2
 1250 0 1250 0 1250 34 c 1
 1147 -2 1016 -21 857 -21 c 0
 350 -21 123 168 123 557 c 0
 123 946 350 1135 857 1135 c 0
 1015 1135 1145 1119 1250 1081 c 1
 1250 1117.65361748 1253.7119425 1114 1287 1114 c 2
 2200 1114 l 2
 2206.63829787 1114 2213.1607062 1114.11588954 2219.41434942 1114.11588954 c 0
 2249.90086012 1114.11588954 2274 1111.36170213 2274 1079 c 0
 2274 1049.56756757 2246.15850986 1047.97662527 2212.46923183 1047.97662527 c 0
 2208.38568298 1047.97662527 2204.21621622 1048 2200 1048 c 2
 1335 1048 l 1
 1335 601 l 1
 2173 601 l 2
 2179 601 2184.9501385 601.074792244 2190.71657676 601.074792244 c 0
 2221.47091413 601.074792244 2247 598.947368421 2247 572 c 0
 2247 543 2228 539 2202 539 c 0
 2193 539 2183 540 2173 540 c 2
 1335 540 l 1
 1335 66 l 1
 2202 66 l 2
 2206.21621622 66 2210.38568298 66.0233747261 2214.46923183 66.0233747261 c 0
 2248.15850986 66.0233747261 2276 64.4324324324 2276 35 c 0
EndSplineSet
EndChar

StartChar: ordmasculine
Encoding: 143 186 135
Width: 1125
Flags: MW
LayerCount: 2
Fore
SplineSet
625 382 m 0
 988 382 1042 555 1042 718 c 0
 1042 966 917 1060 625 1060 c 0
 333 1060 208 966 208 718 c 0
 208 555 262 382 625 382 c 0
625 323 m 0
 257 323 128 474 128 718 c 0
 128 1000 284 1119 625 1119 c 0
 966 1119 1122 1000 1122 718 c 0
 1122 474 993 323 625 323 c 0
281 262 m 2
 822 262 l 2
 834 262 844 251 844 238 c 0
 844 225 834 214 822 214 c 2
 281 214 l 2
 269 214 259 225 259 238 c 0
 259 251 269 262 281 262 c 2
EndSplineSet
EndChar

StartChar: ae
Encoding: 187 230 136
Width: 1774
Flags: MW
LayerCount: 2
Fore
SplineSet
951 431 m 1
 1650 431 l 1
 1653 452 l 1
 1656 463 1657 477 1657 485 c 0
 1657 618 1565 727 1301 727 c 0
 1115 727 1004 680 951 648 c 1
 951 431 l 1
921 681 m 1
 1005 758 1140 786 1301 786 c 0
 1578 786 1716 676 1716 479 c 0
 1716 443 1692 379 1672 379 c 2
 951 379 l 1
 951 137 l 1
 1006 100 1130 49 1303 49 c 0
 1430 49 1576 90 1640 122 c 0
 1647 125 1654 127 1661 127 c 0
 1678 127 1689 116 1689 101 c 0
 1689 90 1683 78 1668 70 c 0
 1552 10 1421 -10 1304 -10 c 0
 1125 -10 996 31 920 100 c 1
 841 26 659 -10 471 -10 c 0
 238 -10 50 51 50 219 c 0
 50 414 236 477 460 477 c 0
 632 477 805 434 890 389 c 1
 889 647 l 1
 841 681 697 727 470 727 c 0
 341 727 204 700 157 621 c 0
 147 604 135 596 122 596 c 0
 110 596 98 606 98 623 c 0
 98 631 102 638 106 649 c 1
 154 743 318 786 483 786 c 0
 624 786 825 777 921 681 c 1
130 219 m 0
 130 91 271 49 463 49 c 0
 694 49 820 96 890 137 c 1
 890 338 l 1
 819 375 637 418 468 418 c 0
 263 418 130 371 130 219 c 0
EndSplineSet
EndChar

StartChar: dotlessi
Encoding: 260 305 137
Width: 312
Flags: MW
LayerCount: 2
Fore
SplineSet
196 707 m 2
 196 63 l 2
 196 28 195 0 156 0 c 0
 119 0 116 24 116 63 c 2
 116 705 l 2
 116 744 119 775 156 775 c 0
 189 775 196 742 196 707 c 2
EndSplineSet
EndChar

StartChar: lslash
Encoding: 277 322 138
Width: 519
Flags: MW
LayerCount: 2
Fore
SplineSet
360 639 m 1
 337 628 319 621 296 612 c 1
 296 72 l 2
 296 33 296 2 261 2 c 0
 229 2 223 27 223 64 c 0
 223 83 225 106 225 129 c 2
 225 584 l 1
 10 489 l 1
 -9 553 l 1
 225 657 l 1
 225 1044 l 2
 225 1085 224 1114 261 1114 c 0
 296 1114 296 1083 296 1044 c 2
 296 688 l 1
 376 721 448 754 528 786 c 1
 548 723 l 1
 484 692 424 666 360 639 c 1
EndSplineSet
EndChar

StartChar: oslash
Encoding: 205 248 139
Width: 1240
Flags: MW
LayerCount: 2
Fore
SplineSet
620 49 m 0
 983 49 1037 222 1037 385 c 0
 1037 578 962 678 790 713 c 1
 541 52 l 1
 566 50 592 49 620 49 c 0
466 62 m 1
 714 723 l 1
 685 726 654 727 620 727 c 0
 328 727 203 633 203 385 c 0
 203 248 240 105 466 62 c 1
811 770 m 1
 1020 729 1117 608 1117 385 c 0
 1117 141 988 -10 620 -10 c 0
 584 -10 550 -9 519 -6 c 1
 455 -176 l 1
 440 -207 434 -233 410 -233 c 0
 380 -233 373 -212 373 -197 c 1
 372 -183 379 -171 385 -155 c 2
 445 4 l 1
 210 47 123 185 123 385 c 0
 123 667 279 786 620 786 c 0
 661 786 700 785 736 781 c 1
 795 938 l 1
 804 969 813 996 844 996 c 0
 872 996 877 978 877 961 c 0
 877 947 872 932 867 918 c 2
 811 770 l 1
EndSplineSet
EndChar

StartChar: oe
Encoding: 291 339 140
Width: 1819
Flags: MW
LayerCount: 2
Fore
SplineSet
614 -10 m 0
 246 -10 123 141 123 385 c 0
 123 667 274 786 614 786 c 0
 791 786 899 753 966 681 c 1
 1050 758 1185 786 1346 786 c 0
 1623 786 1761 676 1761 479 c 0
 1761 443 1737 379 1717 379 c 2
 996 379 l 1
 996 137 l 1
 1051 100 1175 49 1348 49 c 0
 1475 49 1621 90 1685 122 c 0
 1692 125 1699 127 1706 127 c 0
 1723 127 1734 116 1734 101 c 0
 1734 90 1728 78 1713 70 c 0
 1597 10 1466 -10 1349 -10 c 0
 1170 -10 1042 27 966 96 c 1
 903 27 799 -10 614 -10 c 0
614 49 m 0
 831 49 907 100 935 137 c 1
 935 649 l 1
 899 681 817 727 614 727 c 0
 323 727 203 633 203 385 c 0
 203 222 250 49 614 49 c 0
996 431 m 1
 1695 431 l 1
 1698 452 l 1
 1701 463 1702 477 1702 485 c 0
 1702 618 1610 727 1346 727 c 0
 1160 727 1049 680 996 648 c 1
 996 431 l 1
EndSplineSet
EndChar

StartChar: germandbls
Encoding: 180 223 141
Width: 1209
Flags: MW
LayerCount: 2
Fore
SplineSet
1170 288 m 0
 1170 91 1090 0 585 0 c 0
 554 0 521 5 521 32 c 0
 521 64 550 66 589 66 c 0
 984 66 1098 105 1098 280 c 0
 1098 505 846 518 658 518 c 0
 635 518 612 518 591 518 c 0
 502 518 464 525 464 589 c 0
 464 625 489 643 546 655 c 0
 699 687 951 737 951 885 c 0
 951 1023 834 1063 625 1063 c 0
 360 1063 230 1002 230 752 c 2
 230 -4 l 2
 230 -43 230 -73 198 -73 c 0
 159 -73 159 -43 159 -4 c 2
 159 752 l 2
 159 1029 299 1135 624 1135 c 0
 881 1135 1025 1078 1025 878 c 0
 1025 626 542 614 542 586 c 0
 542 578 588 580 638 580 c 0
 863 580 1170 570 1170 288 c 0
EndSplineSet
EndChar

StartChar: uni00B9
Encoding: 142 185 142
Width: 452
Flags: MW
LayerCount: 2
Fore
SplineSet
331 1039 m 2
 331 403 l 2
 331 368 334 333 298 333 c 0
 259 333 259 368 259 403 c 2
 259 1039 l 1
 105 1039 l 2
 78 1039 42 1036 42 1068 c 0
 42 1109 82 1109 103 1109 c 2
 296 1109 l 2
 335 1109 331 1071 331 1039 c 2
EndSplineSet
EndChar

StartChar: logicalnot
Encoding: 129 172 143
Width: 731
Flags: MW
LayerCount: 2
Fore
SplineSet
164 504 m 2
 596 504 l 2
 614 504 623 494 623 482 c 1
 623 481 l 1
 623 327 l 2
 623 308 612 300 600 300 c 0
 589 300 578 308 578 327 c 2
 578 459 l 1
 164 459 l 2
 145 459 137 470 137 481 c 0
 137 493 145 504 164 504 c 2
EndSplineSet
EndChar

StartChar: uni00B5
Encoding: 138 181 144
Width: 1178
Flags: MW
LayerCount: 2
Fore
SplineSet
938 70 m 2
 939 141 l 1
 882 75 768 -10 545 -10 c 0
 260 -10 147 96 147 348 c 2
 147 694 l 2
 147 729 152 766 187 766 c 0
 226 766 227 729 227 694 c 2
 227 348 l 2
 227 125 290 49 545 49 c 0
 731 49 863 120 939 178 c 1
 939 694 l 2
 939 729 941 766 976 766 c 0
 1016 766 1019 729 1019 694 c 2
 1019 70 l 2
 1019 35 1013 0 981 0 c 0
 944 0 938 29 938 61 c 0
 938 64 938 67 938 70 c 2
EndSplineSet
EndChar

StartChar: trademark
Encoding: 400 8482 145
Width: 1135
Flags: MW
LayerCount: 2
Fore
SplineSet
538 1045 m 2
 347 1045 l 1
 347 583 l 2
 347 550 347 535 314 535 c 0
 279 535 280 551 280 583 c 2
 280 1045 l 1
 90 1045 l 2
 67 1045 56 1061 56 1076 c 0
 56 1093 68 1110 93 1110 c 2
 534 1110 l 2
 561 1110 572 1093 572 1076 c 0
 572 1061 561 1045 538 1045 c 2
818 734 m 0
 781 734 780 756 682 984 c 1
 682 580 l 2
 682 556 679 535 648 535 c 0
 611 535 615 558 615 580 c 2
 615 1059 l 2
 615 1078 625 1110 655 1110 c 0
 676 1110 694 1108 723 1039 c 2
 818 809 l 1
 913 1039 l 2
 941 1108 960 1110 981 1110 c 0
 1011 1110 1021 1078 1021 1059 c 2
 1021 580 l 2
 1021 558 1024 535 988 535 c 0
 957 535 954 556 954 580 c 2
 954 984 l 1
 856 755 854 734 818 734 c 0
EndSplineSet
EndChar

StartChar: Eth
Encoding: 165 208 146
Width: 1650
Flags: MW
LayerCount: 2
Fore
SplineSet
1442 559 m 0
 1442 903 1301 1048 867 1048 c 2
 225 1048 l 1
 225 614 l 1
 409 614 l 2
 428 614 436 593 436 576 c 0
 436 560 428 540 409 540 c 2
 225 540 l 1
 225 66 l 1
 867 66 l 2
 1301 66 1442 210 1442 559 c 0
1527 559 m 0
 1527 133 1302 0 867 0 c 2
 179 0 l 2
 140 0 140 0 140 35 c 2
 140 540 l 1
 50 540 l 2
 31 540 23 560 23 576 c 0
 23 593 31 614 50 614 c 2
 140 614 l 1
 140 1077 l 2
 140 1116 140 1114 181 1114 c 2
 867 1114 l 2
 1302 1114 1527 975 1527 559 c 0
EndSplineSet
EndChar

StartChar: onehalf
Encoding: 146 189 147
Width: 1570
Flags: MW
LayerCount: 2
Fore
SplineSet
931 666 m 0
 925 664 919 663 914 663 c 0
 891 663 877 679 877 696 c 0
 877 711 887 723 908 730 c 0
 992 757 1100 786 1208 786 c 0
 1357 786 1497 733 1497 551 c 0
 1497 252 927 231 927 71 c 1
 1433 71 l 2
 1464 71 1478 54 1478 35 c 0
 1478 16 1464 -1 1433 -1 c 2
 882 -1 l 2
 855 -1 846 41 846 72 c 0
 846 290 1421 297 1421 556 c 1
 1416 686 1319 723 1210 723 c 0
 1103 723 990 685 931 666 c 0
331 1039 m 2
 331 403 l 2
 331 368 334 333 298 333 c 0
 259 333 259 368 259 403 c 2
 259 1039 l 1
 105 1039 l 2
 78 1039 42 1036 42 1068 c 0
 42 1109 82 1109 103 1109 c 2
 296 1109 l 2
 335 1109 331 1071 331 1039 c 2
859 1098 m 2
 447 4 l 1
 432 -27 426 -53 402 -53 c 0
 372 -53 365 -32 365 -17 c 1
 364 -3 371 9 377 25 c 2
 787 1118 l 1
 796 1149 805 1176 836 1176 c 0
 864 1176 869 1158 869 1141 c 0
 869 1127 864 1112 859 1098 c 2
EndSplineSet
EndChar

StartChar: plusminus
Encoding: 134 177 148
Width: 829
Flags: MW
LayerCount: 2
Fore
SplineSet
123 54 m 2
 706 54 l 2
 731 54 742 41 742 26 c 0
 742 13 731 0 706 0 c 2
 123 0 l 2
 98 0 87 13 87 26 c 0
 87 41 98 54 123 54 c 2
123 511 m 2
 384 511 l 1
 384 742 l 2
 384 765 398 775 414 775 c 0
 429 775 444 765 444 742 c 2
 444 511 l 1
 706 511 l 2
 731 511 742 498 742 483 c 0
 742 470 731 457 706 457 c 2
 444 457 l 1
 444 224 l 2
 444 201 429 192 414 192 c 0
 398 192 384 201 384 224 c 2
 384 457 l 1
 123 457 l 2
 98 457 87 470 87 483 c 0
 87 498 98 511 123 511 c 2
EndSplineSet
EndChar

StartChar: Thorn
Encoding: 179 222 149
Width: 1030
Flags: MW
LayerCount: 2
Fore
SplineSet
245 828 m 1
 245 330 l 1
 493 330 l 2
 853 330 909 452 909 576 c 0
 909 702 848 828 493 828 c 2
 245 828 l 1
493 264 m 2
 245 264 l 1
 245 76 l 2
 245 37 238 0 206 0 c 0
 167 0 160 35 160 76 c 2
 160 1034 l 2
 160 1075 167 1110 206 1110 c 0
 238 1110 245 1073 245 1034 c 2
 245 894 l 1
 493 894 l 2
 901 894 989 734 989 575 c 0
 989 419 906 264 493 264 c 2
EndSplineSet
EndChar

StartChar: onequarter
Encoding: 145 188 150
Width: 1570
Flags: MW
LayerCount: 2
Fore
SplineSet
1562 321 m 0
 1562 293 1536 288 1491 288 c 2
 1321 288 l 1
 1321 70 l 2
 1321 35 1321 0 1286 0 c 0
 1247 0 1249 35 1249 70 c 2
 1249 288 l 1
 877 288 l 2
 804 288 804 323 804 358 c 2
 804 709 l 2
 804 741 804 776 843 776 c 0
 878 776 877 738 877 709 c 2
 877 358 l 1
 1249 358 l 1
 1249 706 l 2
 1249 741 1247 776 1286 776 c 0
 1321 776 1321 741 1321 706 c 2
 1321 358 l 1
 1490 358 l 2
 1534 358 1562 359 1562 321 c 0
331 1039 m 2
 331 403 l 2
 331 368 334 333 298 333 c 0
 259 333 259 368 259 403 c 2
 259 1039 l 1
 105 1039 l 2
 78 1039 42 1036 42 1068 c 0
 42 1109 82 1109 103 1109 c 2
 296 1109 l 2
 335 1109 331 1071 331 1039 c 2
826 1098 m 2
 414 4 l 1
 399 -27 393 -53 369 -53 c 0
 339 -53 332 -32 332 -17 c 1
 331 -3 338 9 344 25 c 2
 754 1118 l 1
 763 1149 772 1176 803 1176 c 0
 831 1176 836 1158 836 1141 c 0
 836 1127 831 1112 826 1098 c 2
EndSplineSet
EndChar

StartChar: divide
Encoding: 204 247 151
Width: 681
Flags: MW
LayerCount: 2
Fore
SplineSet
277 665 m 0
 277 703 302 730 341 730 c 0
 377 730 407 703 407 665 c 0
 407 628 377 603 341 603 c 0
 302 603 277 628 277 665 c 0
277 303 m 0
 277 341 302 368 341 368 c 0
 377 368 407 341 407 303 c 0
 407 266 377 241 341 241 c 0
 302 241 277 266 277 303 c 0
124 518 m 2
 533 518 l 2
 552 518 560 497 560 480 c 0
 560 464 552 444 533 444 c 2
 124 444 l 2
 105 444 97 464 97 480 c 0
 97 497 105 518 124 518 c 2
EndSplineSet
EndChar

StartChar: brokenbar
Encoding: 123 166 152
Width: 307
Flags: MW
LayerCount: 2
Fore
SplineSet
189 475 m 2
 189 -57 l 2
 189 -96 189 -127 156 -127 c 0
 117 -127 117 -95 117 -59 c 2
 117 473 l 2
 117 512 117 545 156 545 c 0
 189 545 189 510 189 475 c 2
189 1227 m 2
 189 694 l 2
 189 655 189 625 156 625 c 0
 117 625 117 657 117 692 c 2
 117 1225 l 2
 117 1264 117 1296 156 1296 c 0
 189 1296 189 1262 189 1227 c 2
EndSplineSet
EndChar

StartChar: degree
Encoding: 133 176 153
Width: 367
Flags: MW
LayerCount: 2
Fore
SplineSet
117 997 m 0
 117 962 147 932 184 932 c 0
 221 932 252 962 252 997 c 0
 252 1033 221 1061 184 1061 c 0
 147 1061 117 1033 117 997 c 0
301 997 m 0
 301 933 248 885 184 885 c 0
 121 885 66 933 66 997 c 0
 66 1061 117 1110 184 1110 c 0
 248 1110 301 1061 301 997 c 0
EndSplineSet
EndChar

StartChar: thorn
Encoding: 211 254 154
Width: 1196
Flags: MW
LayerCount: 2
Fore
SplineSet
630 727 m 1
 470 724 228 691 180 524 c 1
 180 140 l 1
 294 97 444 49 630 49 c 0
 886 49 993 153 993 396 c 0
 993 648 831 727 630 727 c 1
630 786 m 0
 870 786 1073 687 1073 396 c 0
 1073 102 913 -10 630 -10 c 0
 440 -10 286 36 180 78 c 1
 178 -267 l 2
 178 -302 178 -337 139 -337 c 0
 100 -337 100 -300 100 -261 c 2
 100 1061 l 2
 100 1104 118 1110 137 1110 c 0
 160 1110 175 1104 175 1061 c 2
 175 594 l 1
 219 765 493 786 630 786 c 0
EndSplineSet
EndChar

StartChar: threequarters
Encoding: 147 190 155
Width: 2087
Flags: MW
LayerCount: 2
Fore
SplineSet
1245 1098 m 2
 833 4 l 1
 818 -27 812 -53 788 -53 c 0
 758 -53 751 -32 751 -17 c 1
 750 -3 757 9 763 25 c 2
 1173 1118 l 1
 1182 1149 1191 1176 1222 1176 c 0
 1250 1176 1255 1158 1255 1141 c 0
 1255 1127 1250 1112 1245 1098 c 2
2032 264 m 0
 2032 235 1995 230 1950 230 c 0
 1930 230 1907 231 1886 231 c 2
 1741 231 l 1
 1741 70 l 2
 1741 35 1741 0 1706 0 c 0
 1667 0 1669 35 1669 70 c 2
 1669 231 l 1
 1325 231 l 2
 1252 231 1252 266 1252 301 c 2
 1252 708 l 2
 1252 740 1252 775 1291 775 c 0
 1326 775 1325 737 1325 708 c 2
 1325 301 l 1
 1669 301 l 1
 1669 705 l 2
 1669 740 1667 775 1706 775 c 0
 1741 775 1741 740 1741 705 c 2
 1741 301 l 1
 1960 301 l 2
 2004 301 2032 303 2032 264 c 0
154 1003 m 1
 147 1001 140 1000 135 1000 c 0
 114 1000 102 1012 102 1027 c 0
 102 1060 215 1116 375 1116 c 0
 591 1116 669 1020 669 919 c 0
 669 839 633 755 484 715 c 1
 651 670 694 577 694 488 c 0
 694 376 606 270 375 270 c 0
 168 270 91 347 91 368 c 0
 91 383 104 394 127 394 c 0
 152 394 177 375 210 364 c 0
 247 351 302 339 375 339 c 0
 570 339 627 419 627 502 c 0
 627 590 555 681 350 681 c 2
 289 681 l 2
 265 681 254 697 254 713 c 0
 254 729 265 745 289 745 c 2
 350 745 l 2
 542 745 606 831 606 912 c 0
 606 986 559 1057 385 1057 c 0
 238 1057 154 1006 154 1003 c 1
EndSplineSet
EndChar

StartChar: uni00B2
Encoding: 135 178 156
Width: 925
Flags: MW
LayerCount: 2
Fore
SplineSet
247 994 m 0
 241 992 235 991 230 991 c 0
 207 991 193 1007 193 1024 c 0
 193 1039 203 1051 224 1058 c 0
 308 1085 416 1114 524 1114 c 0
 673 1114 813 1061 813 879 c 0
 813 580 243 559 243 399 c 1
 749 399 l 2
 780 399 794 382 794 363 c 0
 794 344 780 327 749 327 c 2
 198 327 l 2
 171 327 162 369 162 400 c 0
 162 618 737 625 737 884 c 1
 732 1014 635 1051 526 1051 c 0
 419 1051 306 1013 247 994 c 0
EndSplineSet
EndChar

StartChar: registered
Encoding: 131 174 157
Width: 1181
Flags: MW
LayerCount: 2
Fore
SplineSet
1106 556 m 0
 1106 249 848 92 590 92 c 0
 334 92 75 249 75 556 c 0
 75 863 334 1020 590 1020 c 0
 848 1020 1106 863 1106 556 c 0
1040 556 m 0
 1040 823 817 959 594 959 c 0
 371 959 148 823 148 556 c 0
 148 289 371 153 594 153 c 0
 817 153 1040 289 1040 556 c 0
819 674 m 0
 819 821 712 815 527 815 c 2
 430 815 l 1
 430 542 l 1
 601 542 l 2
 712 542 819 542 819 674 c 0
887 674 m 0
 887 534 751 495 674 495 c 1
 837 304 l 2
 842 298 844 292 844 285 c 0
 844 269 829 254 811 254 c 0
 802 254 793 258 785 268 c 2
 601 493 l 1
 430 493 l 1
 430 290 l 2
 430 264 413 252 396 252 c 0
 380 252 363 264 363 290 c 2
 363 830 l 2
 363 851 373 865 396 865 c 2
 527 865 l 2
 728 865 887 866 887 674 c 0
EndSplineSet
EndChar

StartChar: eth
Encoding: 197 240 159
Width: 1064
Flags: MW
LayerCount: 2
Fore
SplineSet
789.921875 974.475585938 m 1
 909.131890707 877.228044041 979.218066592 702.184747828 979.218066592 509.034930158 c 0
 979.218066592 145.550289519 849.44317385 -20.47265625 545.255859375 -20.47265625 c 0
 223.29891005 -20.47265625 122.306640625 154.093769547 122.306640625 342.795898438 c 0
 122.306640625 554.684331152 283.35799169 671.54276595 495.800715601 671.54276595 c 0
 620.548012805 671.54276595 763.015505803 633.422273325 901 553 c 1
 901 720.759933681 823.135188944 862.092897247 733.352539062 932.657226562 c 1
 685.789068248 897.294646805 638.184687662 861.973243294 590.538085938 826.694335938 c 0
 584.476462268 821.420064775 578.403802704 819.231417285 572.913877083 819.231417285 c 0
 560.7605691 819.231417285 551.463051999 829.957271873 551.463051999 841.677811473 c 0
 551.463051999 848.876756484 554.970647345 856.450957865 563.478515625 862.145507812 c 0
 608.65206039 895.222623084 653.749766659 928.375576852 698.778255647 961.597747901 c 1
 583.318034918 1052.6639245 373.784793023 1061 264 1061 c 0
 247.077803191 1061 238.530273438 1075.93454845 238.530273438 1090.51464844 c 0
 238.530273438 1104.41849228 246.303543859 1118 262 1118 c 0
 420.001398298 1118 588.681033591 1115.73277654 756.321771504 1004.11822207 c 1
 807.916741147 1042.30041603 859.424314928 1080.57000585 910.854492188 1118.91699219 c 1
 915.763699214 1124.0975824 921.255802941 1126.25528161 926.521095039 1126.25528161 c 0
 938.553673522 1126.25528161 949.401744577 1114.98685263 949.401744577 1102.77573227 c 0
 949.401744577 1096.04995753 946.11075784 1089.03819786 937.9140625 1083.46582031 c 0
 888.623175953 1047.09615602 839.292873672 1010.76565375 789.921875 974.475585938 c 1
901 489 m 1
 777.739094496 556.752732035 625.317875264 602.643670007 494.030027825 602.643670007 c 0
 330.021515026 602.643670007 198.993164062 527.404439014 198.993164062 327.7109375 c 0
 198.993164062 191.948405348 270.949988773 48.1396484375 539.182617188 48.1396484375 c 0
 805.955684002 48.1396484375 901 194.521848226 901 489 c 1
EndSplineSet
EndChar

StartChar: multiply
Encoding: 172 215 160
Width: 665
Flags: MW
LayerCount: 2
Fore
SplineSet
486 287 m 2
 332 434 l 1
 209 315 l 2
 186 293 152 252 125 252 c 0
 108 252 93 270 93 283 c 0
 93 302 109 319 132 338 c 1
 283 483 l 1
 127 631 l 1
 104 650 91 666 91 682 c 0
 91 698 110 715 125 715 c 0
 152 715 183 673 207 651 c 2
 332 532 l 1
 457 651 l 2
 481 674 515 715 539 715 c 0
 554 715 574 698 574 682 c 0
 574 667 558 649 539 631 c 2
 385 483 l 1
 537 338 l 2
 556 319 572 301 572 285 c 0
 572 270 558 250 541 250 c 0
 525 250 505 268 486 287 c 2
EndSplineSet
EndChar

StartChar: uni00B3
Encoding: 136 179 161
Width: 946
Flags: MW
LayerCount: 2
Fore
SplineSet
244 1003 m 0
 236 997 228 995 221 995 c 0
 204 995 192 1009 192 1027 c 0
 192 1060 306 1116 465 1116 c 0
 681 1116 759 1020 759 919 c 0
 759 839 725 755 584 715 c 1
 743 670 784 577 784 488 c 0
 784 376 696 270 465 270 c 0
 289 270 193 328 193 359 c 0
 193 375 208 388 228 388 c 0
 235 388 242 386 249 383 c 0
 308 354 373 336 465 336 c 0
 652 336 711 414 711 492 c 0
 711 585 638 681 440 681 c 2
 379 681 l 2
 355 681 344 697 344 713 c 0
 344 729 355 745 379 745 c 2
 440 745 l 2
 624 745 687 831 687 912 c 0
 687 986 641 1057 475 1057 c 0
 328 1057 252 1008 244 1003 c 0
EndSplineSet
EndChar

StartChar: copyright
Encoding: 126 169 162
Width: 1181
Flags: MW
LayerCount: 2
Fore
SplineSet
1106 556 m 0
 1106 249 848 92 590 92 c 0
 334 92 75 249 75 556 c 0
 75 863 334 1020 590 1020 c 0
 848 1020 1106 863 1106 556 c 0
1040 556 m 0
 1040 823 817 959 594 959 c 0
 371 959 148 823 148 556 c 0
 148 289 371 153 594 153 c 0
 817 153 1040 289 1040 556 c 0
248 556 m 0
 248 777 409 871 581 871 c 0
 666 871 754 849 827 806 c 0
 836 801 841 793 841 782 c 0
 841 766 828 750 813 750 c 0
 808 750 803 751 800 754 c 1
 740 790 662 811 586 811 c 0
 448 811 316 740 316 556 c 0
 316 372 448 301 586 301 c 0
 662 301 740 322 800 358 c 1
 803 361 808 362 813 362 c 0
 828 362 841 346 841 330 c 0
 841 319 836 311 827 306 c 0
 754 263 666 241 581 241 c 0
 409 241 248 334 248 556 c 0
EndSplineSet
EndChar

StartChar: uni2074
Encoding: 398 8308 220
Width: 1058
Flags: MW
LayerCount: 2
Fore
SplineSet
994 321 m 0
 994 293 968 288 923 288 c 2
 753 288 l 1
 753 70 l 2
 753 35 753 0 718 0 c 0
 679 0 681 35 681 70 c 2
 681 288 l 1
 309 288 l 2
 236 288 236 323 236 358 c 2
 236 709 l 2
 236 741 236 776 275 776 c 0
 310 776 309 738 309 709 c 2
 309 358 l 1
 681 358 l 1
 681 706 l 2
 681 741 679 776 718 776 c 0
 753 776 753 741 753 706 c 2
 753 358 l 1
 922 358 l 2
 966 358 994 359 994 321 c 0
EndSplineSet
EndChar

StartChar: uni00AD
Encoding: 130 173 224
Width: 827
Flags: MW
LayerCount: 2
Fore
SplineSet
197 518 m 2
 556 518 l 2
 575 518 583 497 583 480 c 0
 583 464 575 444 556 444 c 2
 197 444 l 2
 178 444 170 464 170 480 c 0
 170 497 178 518 197 518 c 2
EndSplineSet
EndChar

StartChar: hbar
Encoding: 250 295 239
Width: 1085
Flags: MW
LayerCount: 2
Fore
SplineSet
993 418 m 2
 993 72 l 2
 993 37 987 0 955 0 c 0
 916 0 913 37 913 72 c 2
 913 418 l 2
 913 626 862 727 606 727 c 0
 451 727 229 681 181 524 c 1
 181 72 l 2
 181 37 175 0 143 0 c 0
 105 0 101 37 101 72 c 2
 101 912 l 1
 28 912 l 2
 12 912 0 926 0 942 c 0
 0 958 12 972 28 972 c 2
 101 972 l 1
 101 1044 l 2
 101 1076 105 1114 143 1114 c 0
 175 1114 181 1079 181 1044 c 2
 181 972 l 1
 435 972 l 2
 451 972 463 958 463 942 c 0
 463 926 451 912 435 912 c 2
 181 912 l 1
 181 594 l 1
 225 755 470 786 606 786 c 0
 894 786 993 695 993 418 c 2
EndSplineSet
EndChar

StartChar: IJ
Encoding: 261 306 246
Width: 2088
Flags: MW
LayerCount: 2
Fore
SplineSet
1929 1044 m 2
 1929 594 l 2
 1929 178 1831 -20 1498 -20 c 0
 1271 -20 1089 25 1038 214 c 0
 1035 222 1034 230 1034 238 c 0
 1034 265 1049 277 1068 277 c 0
 1085 277 1104 264 1111 240 c 1
 1153 57 1341 49 1498 49 c 0
 1781 49 1844 240 1844 594 c 2
 1844 1044 l 2
 1844 1083 1850 1114 1889 1114 c 0
 1924 1114 1929 1076 1929 1044 c 2
473 66 m 1
 473 1048 l 1
 116 1048 l 2
 81 1048 43 1046 43 1079 c 0
 43 1118 84 1114 116 1114 c 2
 915 1114 l 2
 954 1114 987 1117 987 1081 c 0
 987 1045 954 1048 915 1048 c 2
 558 1048 l 1
 558 66 l 1
 915 66 l 2
 954 66 987 69 987 33 c 0
 987 -3 954 0 915 0 c 2
 116 0 l 2
 84 0 43 -4 43 35 c 0
 43 68 81 66 116 66 c 2
 473 66 l 1
EndSplineSet
EndChar

StartChar: ij
Encoding: 262 307 247
Width: 909
Flags: MW
LayerCount: 2
Fore
SplineSet
691 992 m 0
 691 1023 713 1046 744 1046 c 0
 775 1046 799 1023 799 992 c 0
 799 961 775 941 744 941 c 0
 713 941 691 961 691 992 c 0
785 714 m 2
 785 94 l 2
 785 -45 781 -266 492 -266 c 0
 457 -266 426 -266 426 -231 c 0
 426 -196 457 -197 492 -197 c 0
 713 -197 705 -45 705 94 c 2
 705 714 l 2
 705 743 711 766 746 766 c 0
 785 766 785 743 785 714 c 2
159 992 m 0
 159 1023 181 1046 212 1046 c 0
 243 1046 267 1023 267 992 c 0
 267 961 243 941 212 941 c 0
 181 941 159 961 159 992 c 0
252 707 m 2
 252 63 l 2
 252 28 251 0 212 0 c 0
 175 0 172 24 172 63 c 2
 172 705 l 2
 172 738 177 766 214 766 c 0
 247 766 252 737 252 707 c 2
EndSplineSet
EndChar

StartChar: kgreenlandic
Encoding: 267 312 251
Width: 921
Flags: MW
LayerCount: 2
Fore
SplineSet
464 473 m 1
 872 61 l 2
 881 52 885 43 885 32 c 0
 885 15 872 2 853 2 c 0
 842 2 830 6 819 18 c 2
 403 444 l 1
 180 318 l 1
 180 44 l 2
 180 13 159 0 140 0 c 0
 123 0 100 13 100 44 c 2
 100 737 l 2
 100 764 125 777 142 777 c 0
 161 777 180 764 180 737 c 2
 180 385 l 1
 846 772 l 2
 850 774 854 775 859 775 c 0
 876 775 888 759 888 743 c 0
 888 732 883 725 872 720 c 1
 464 473 l 1
EndSplineSet
EndChar

StartChar: Euro
Encoding: 399 8364 267
Width: 1133
Flags: MW
LayerCount: 2
Fore
SplineSet
715 638 m 0
 715 623 707 609 690 609 c 2
 264 609 l 1
 264 528 l 1
 688 528 l 2
 705 528 713 514 713 499 c 0
 713 484 705 470 688 470 c 2
 266 470 l 1
 279 181 363 45 626 45 c 0
 833 45 930 128 967 301 c 1
 1043 301 l 1
 1003 101 888 -21 626 -21 c 0
 294 -21 203 171 190 470 c 1
 83 470 l 2
 66 470 59 484 59 499 c 0
 59 514 66 528 83 528 c 2
 188 528 l 1
 188 609 l 1
 85 609 l 2
 68 609 61 623 61 638 c 0
 61 653 68 667 85 667 c 2
 191 667 l 1
 208 952 303 1135 626 1135 c 0
 905 1135 1014 999 1049 777 c 1
 974 776 l 1
 942 975 846 1069 626 1069 c 0
 370 1069 283 939 267 667 c 1
 690 667 l 2
 707 667 715 653 715 638 c 0
EndSplineSet
EndChar

StartChar: gcedilla
Encoding: 244 291 270
Width: 1123
Flags: MW
LayerCount: 2
Fore
SplineSet
632 1138 m 1
 632 1102 l 1
 583 1102 569 1074 569 1035 c 1
 591 1028 618 1008 618 968 c 0
 618 929 586 909 548 909 c 0
 517 909 480 933 480 983 c 0
 480 1051 530 1138 632 1138 c 1
544 -270 m 0
 763 -270 923 -195 923 -23 c 2
 923 96 l 1
 808 16 657 -10 525 -10 c 0
 222 -10 44 70 44 383 c 0
 44 695 250 786 562 786 c 0
 837 786 904 670 923 594 c 1
 923 618 920 651 920 682 c 0
 920 727 926 766 955 766 c 0
 994 766 1003 728 1003 696 c 2
 1003 -23 l 2
 1003 -234 837 -340 544 -340 c 0
 351 -340 250 -299 177 -258 c 1
 163 -254 136 -235 136 -213 c 0
 136 -188 161 -178 169 -178 c 0
 192 -178 234 -216 294 -233 c 1
 350 -252 428 -270 544 -270 c 0
570 717 m 0
 253 717 124 629 124 383 c 0
 124 137 228 49 529 49 c 0
 667 49 814 78 923 150 c 1
 923 524 l 1
 904 599 836 717 570 717 c 0
EndSplineSet
EndChar

StartChar: uni030F
Encoding: 377 783 274
Width: 358
Flags: MW
LayerCount: 2
Fore
SplineSet
85 1271 m 2
 347 1005 l 2
 351.961914062 999.962890625 355 994 355 987 c 0
 355 972 343 961 328 961 c 0
 322 961 317 963 313 966 c 2
 21 1203 l 2
 11 1211 6 1220 6 1231 c 0
 6 1255.24590164 35.53125 1282 60 1282 c 0
 69 1282 78 1278 85 1271 c 2
-143 1271 m 2
 119 1005 l 2
 123.961914062 999.962890625 127 994 127 987 c 0
 127 972 115 961 100 961 c 0
 94 961 89 963 85 966 c 2
 -207 1203 l 2
 -217 1211 -222 1220 -222 1231 c 0
 -222 1255.24590164 -192.46875 1282 -168 1282 c 0
 -159 1282 -150 1278 -143 1271 c 2
EndSplineSet
EndChar

StartChar: uni0326
Encoding: 379 806 275
Width: 379
Flags: MW
LayerCount: 2
Fore
SplineSet
124 -324 m 1
 124 -288 l 1
 173 -288 187 -260 187 -221 c 1
 165 -214 138 -194 138 -154 c 0
 138 -115 170 -95 208 -95 c 0
 239 -95 276 -119 276 -169 c 0
 276 -237 226 -324 124 -324 c 1
EndSplineSet
EndChar

StartChar: uni0311
Encoding: 378 785 276
Width: 654
Flags: MW
LayerCount: 2
Fore
SplineSet
544 989 m 1
 497 989 l 1
 492 1044 464 1113 359 1113 c 0
 251 1113 223 1043 221 989 c 1
 174 989 l 1
 174 1062 193 1175 359 1175 c 0
 520 1175 544 1069 544 989 c 1
EndSplineSet
EndChar

StartChar: uni0237
Encoding: 367 567 277
Width: 483
Flags: MW
LayerCount: 2
Fore
SplineSet
359 714 m 2
 359 94 l 2
 359 -45 355 -266 66 -266 c 0
 31 -266 0 -266 0 -231 c 0
 0 -196 31 -197 66 -197 c 0
 287 -197 279 -45 279 94 c 2
 279 714 l 2
 279 749 285 775 320 775 c 0
 359 775 359 749 359 714 c 2
EndSplineSet
EndChar

StartChar: uni0307
Encoding: 376 775 278
Width: 245
Flags: MW
LayerCount: 2
Fore
SplineSet
104 1055 m 0
 104 1090 127 1114 162 1114 c 0
 195 1114 222 1090 222 1055 c 0
 222 1022 195 999 162 999 c 0
 127 999 104 1022 104 1055 c 0
EndSplineSet
EndChar

StartChar: periodcentered
Encoding: 140 183 305
Width: 312
Flags: MW
LayerCount: 2
Fore
SplineSet
93 1005.5 m 0
 93 1043.5 118 1070.5 157 1070.5 c 0
 193 1070.5 223 1043.5 223 1005.5 c 0
 223 968.5 193 943.5 157 943.5 c 0
 118 943.5 93 968.5 93 1005.5 c 0
EndSplineSet
EndChar

StartChar: notequal
Encoding: 409 8800 383
Width: 906
VWidth: 0
Flags: M
LayerCount: 2
Fore
SplineSet
781 638 m 0
 781 623 773 609 756 609 c 2
 509 609 l 1
 474 528 l 1
 754 528 l 2
 771 528 779 514 779 499 c 0
 779 484 771 470 754 470 c 2
 450 470 l 1
 366 274 l 2
 352 242 345 217 321 217 c 0
 291 217 284 238 284 253 c 1
 283 267 289 279 296 295 c 2
 370 470 l 1
 149 470 l 2
 132 470 125 484 125 499 c 0
 125 514 132 528 149 528 c 2
 395 528 l 1
 429 609 l 1
 151 609 l 2
 134 609 127 623 127 638 c 0
 127 653 134 667 151 667 c 2
 453 667 l 1
 514 810 l 2
 527 840 532 868 563 868 c 0
 591 868 596 850 596 833 c 0
 596 819 591 804 586 790 c 2
 534 667 l 1
 756 667 l 2
 773 667 781 653 781 638 c 0
EndSplineSet
EndChar

StartChar: dcroat
Encoding: 230 273 384
Width: 1255
Flags: MW
LayerCount: 2
Fore
SplineSet
566 -10 m 0
 326 -10 123 79 123 380 c 0
 123 679 283 786 566 786 c 0
 846 786 965 710 1016 659 c 1
 1016 889 l 1
 607 889 l 2
 589 889 580 903 580 917 c 0
 580 931 589 946 607 946 c 2
 1016 946 l 1
 1016 1043 l 2
 1016 1079 1016 1114 1055 1114 c 0
 1094 1114 1096 1084 1096 1045 c 2
 1096 946 l 1
 1228 946 l 2
 1246 946 1255 931 1255 917 c 0
 1255 903 1246 889 1228 889 c 2
 1096 889 l 1
 1096 54 l 2
 1096 11 1076 0 1057 0 c 0
 1034 0 1016 9 1016 52 c 2
 1016 191 l 1
 972 20 703 -10 566 -10 c 0
566 49 m 1
 726 52 968 85 1016 252 c 1
 1016 612 l 1
 956 661 833 727 566 727 c 0
 310 727 203 623 203 380 c 0
 203 128 365 49 566 49 c 1
EndSplineSet
EndChar

StartChar: Hbar
Encoding: 249 294 385
Width: 1373
Flags: MW
LayerCount: 2
Fore
SplineSet
244 889 m 1
 244 606 l 1
 1129 606 l 1
 1129 889 l 1
 244 889 l 1
159 889 m 1
 92 889 l 2
 74 889 64 903 64 917 c 0
 64 931 74 946 92 946 c 2
 159 946 l 1
 159 1044 l 2
 159 1079 166 1114 207 1114 c 0
 236 1114 244 1077 244 1044 c 2
 244 946 l 1
 1129 946 l 1
 1129 1044 l 2
 1129 1079 1132 1114 1171 1114 c 0
 1211 1114 1214 1079 1214 1044 c 2
 1214 946 l 1
 1285 946 l 2
 1303 946 1312 931 1312 917 c 0
 1312 903 1303 889 1285 889 c 2
 1214 889 l 1
 1214 70 l 2
 1214 35 1211 0 1172 0 c 0
 1132 0 1129 35 1129 70 c 2
 1129 544 l 1
 244 544 l 1
 244 70 l 2
 244 37 234 0 205 0 c 0
 164 0 159 35 159 70 c 2
 159 889 l 1
EndSplineSet
EndChar
